<svg aria-hidden="true" style="position:absolute;width:0;height:0;overflow:hidden" xmlns="http://www.w3.org/2000/svg">
  <defs>
  <!-- Logo -->
    <symbol id="icon-Logo" viewBox="0 0 69 32">
      <path fill="#101010" style="fill:var(--color1, #101010)" d="m35.797 18.591-2.252-1.145-.123.123q-.308.283-.708.462-.203.092-.418.148-.289.068-.591.068-.48 0-.898-.16-.228-.086-.437-.215-.271-.178-.498-.4-.258-.265-.443-.597-.16-.289-.246-.603-.098-.363-.098-.751 0-.462.135-.88.08-.246.209-.468.203-.369.492-.652.203-.197.449-.357.228-.142.474-.234.4-.154.862-.154c.338 0 .671.074.991.215a2.5 2.5 0 0 1 .849.597l2.252-1.138q-.252-.326-.548-.609-.535-.511-1.225-.868-.295-.154-.615-.265-.8-.289-1.705-.289-.8 0-1.52.228-.24.074-.468.172-.56.234-1.034.585-.32.234-.609.517-.222.222-.412.468-.406.523-.683 1.151-.055.135-.105.277-.289.8-.289 1.705 0 .898.277 1.692.16.449.406.868.345.572.806 1.028.462.462 1.046.812a5.046 5.046 0 0 0 2.585.683c.837 0 1.612-.185 2.32-.548a5.199 5.199 0 0 0 1.772-1.465zm3.446 1.329a5.005 5.005 0 0 0 2.578.683c.714 0 1.372-.129 1.988-.394.622-.265 1.163-.628 1.631-1.095s.837-1.009 1.102-1.618a4.84 4.84 0 0 0 .4-1.975q0-.911-.289-1.717-.16-.443-.406-.849a5.075 5.075 0 0 0-1.852-1.846q-.375-.222-.782-.375-.837-.314-1.791-.314a5.118 5.118 0 0 0-3.625 1.502c-.462.462-.831 1.003-1.095 1.618s-.4 1.274-.4 1.982q0 .898.283 1.692.16.449.406.868a5.314 5.314 0 0 0 1.852 1.84zm15.686-2.474 2.252 1.145a5.359 5.359 0 0 1-1.772 1.465 5.024 5.024 0 0 1-2.326.548 5.002 5.002 0 0 1-2.578-.683c-.769-.462-1.391-1.071-1.852-1.84s-.689-1.625-.689-2.56q0-.905.289-1.705.055-.142.111-.277a5.164 5.164 0 0 1 2.732-2.72 5.025 5.025 0 0 1 1.988-.4c.843 0 1.618.185 2.326.554s1.298.862 1.772 1.477l-2.252 1.138a2.514 2.514 0 0 0-.849-.597 2.434 2.434 0 0 0-.997-.215c-.492 0-.935.129-1.329.388a2.754 2.754 0 0 0-.942 1.009c-.234.406-.351.862-.351 1.348s.117.935.351 1.354c.234.412.548.745.942.997s.837.375 1.329.375c.357 0 .695-.074 1.015-.215.32-.148.597-.345.831-.585zm13.994-6.757h-2.505l.117 1.237a4.576 4.576 0 0 0-1.372-1.077c-.535-.289-1.138-.431-1.815-.431a5.41 5.41 0 0 0-3.729 1.459c-.48.462-.862.991-1.132 1.594q-.105.24-.185.48-.215.702-.215 1.465c0 .714.142 1.385.418 2.012q.203.443.486.843.302.431.689.806.215.203.449.375.591.455 1.305.745a5.577 5.577 0 0 0 2.129.406c.628 0 1.169-.129 1.631-.394a3.27 3.27 0 0 0 1.114-1.052l.111 1.194h2.505v-9.662zm-4.006 7.268c-.412.252-.88.375-1.415.375-.517 0-.997-.123-1.434-.375a2.923 2.923 0 0 1-1.034-1.015q-.135-.215-.222-.455-.166-.449-.166-.966 0-.535.178-1.009.08-.209.197-.406a2.93 2.93 0 0 1 1.04-1.015q.24-.148.505-.234.443-.154.935-.154c.529 0 .997.123 1.403.375.418.252.745.591.972 1.028q.074.129.129.265.222.529.222 1.151 0 .548-.172 1.034-.074.197-.178.388a2.668 2.668 0 0 1-.96 1.015zm-21.754-.086a2.439 2.439 0 0 1-1.342.375 2.53 2.53 0 0 1-1.311-.357q-.24-.148-.437-.338-.302-.277-.511-.646-.098-.16-.166-.332-.197-.486-.197-1.052 0-.431.123-.825.086-.277.228-.535c.234-.418.548-.751.942-1.003q.209-.135.431-.222.418-.16.898-.16.406 0 .769.123.283.092.542.258c.406.24.72.572.954.991q.111.191.185.394.172.455.172.978c0 .492-.117.942-.345 1.354s-.535.745-.935.997zM20.677 14.788c0 5.623-4.629 10.182-10.338 10.182S.001 20.411.001 14.788 4.63 4.606 10.339 4.606s10.338 4.559 10.338 10.182z"/>
      <path fill="#fff" style="fill:var(--color2, #fff)" d="m13.508 17.182 2.24 1.114a5.887 5.887 0 0 1-2.08 1.68 6.005 6.005 0 0 1-2.726.628c-1.108 0-2.117-.258-3.034-.782a6.087 6.087 0 0 1-2.178-2.098c-.542-.886-.806-1.858-.806-2.929 0-.806.154-1.563.468-2.258a5.953 5.953 0 0 1 1.286-1.858A6.089 6.089 0 0 1 8.61 9.424a6.029 6.029 0 0 1 2.332-.455 5.99 5.99 0 0 1 2.726.628c.843.425 1.538.985 2.08 1.692l-2.24 1.114a3.299 3.299 0 0 0-1.175-.837 3.374 3.374 0 0 0-1.391-.302c-.658 0-1.255.166-1.791.498a3.649 3.649 0 0 0-1.268 1.292 3.45 3.45 0 0 0-.455 1.742c0 .628.154 1.206.468 1.748.314.529.738.954 1.268 1.28a3.359 3.359 0 0 0 1.778.486c.498 0 .972-.105 1.422-.308.455-.209.831-.48 1.145-.818z"/>
    </symbol>
     <!-- Menu -->
    <symbol id="icon-menu" viewBox="0 0 32 32">
      <path d="M4.787 8c0-.893.72-1.613 1.6-1.613h19.2c.893 0 1.6.72 1.6 1.613 0 .88-.707 1.587-1.6 1.587h-19.2c-.88 0-1.6-.707-1.6-1.587zm0 8c0-.893.72-1.6 1.6-1.6h19.2c.893 0 1.6.707 1.6 1.6 0 .88-.707 1.6-1.6 1.6h-19.2c-.88 0-1.6-.72-1.6-1.6zM16 22.387A1.61 1.61 0 0 0 14.387 24c0 .88.72 1.6 1.613 1.6h9.587c.893 0 1.6-.72 1.6-1.6a1.6 1.6 0 0 0-1.6-1.613H16z"/>
    </symbol>
    <!-- icon-up-arrow -->
    <symbol id="icon-up-arrow" viewBox="0 0 32 32">
      <path stroke-linecap="round" stroke-width="5.333" d="m5.987 13.97 10.012-9.978 9.978 9.978M15.999 27.973V3.991"/>
    </symbol>
     <!-- icon-down-arrow -->
    <symbol id="icon-down-arrow" viewBox="0 0 32 32">
      <path stroke-linecap="round" stroke-width="5.294" d="m6.042 17.896 9.839 10.005 10.005-9.872M16.08 4.061 15.882 27.9"/>
    </symbol>
    <!-- Overview -->
    <symbol id="icon-Icon" viewBox="0 0 32 32">
      <path stroke-linejoin="round" stroke-linecap="round" stroke-width="2.667" d="M25.333 6.667A2.666 2.666 0 0 1 28 9.334v16c0 1.467-1.2 2.667-2.667 2.667H6.666c-1.48 0-2.667-1.2-2.667-2.667v-16a2.658 2.658 0 0 1 2.667-2.667h18.667zM10.667 9.333V4m10.666 5.333V4m-12 10.667h13.333"/>
    </symbol>
    <symbol id="icon-Icon-1" viewBox="0 0 32 32">
      <path stroke-linecap="round" stroke-width="2.667" d="M20 6.667h2.667a2.666 2.666 0 0 1 2.667 2.667v16c0 1.467-1.2 2.667-2.667 2.667H9.334c-1.48 0-2.667-1.2-2.667-2.667v-16a2.658 2.658 0 0 1 2.667-2.667h2.667m-.001 12 2.667 2.667L20 16.001M17.333 4a2.666 2.666 0 1 1 0 5.334h-2.667c-1.48 0-2.667-1.2-2.667-2.667A2.658 2.658 0 0 1 14.666 4h2.667z"/>
    </symbol>
    <symbol id="icon-Icon-2" viewBox="0 0 32 32">
      <path stroke-linejoin="round" stroke-linecap="round" stroke-width="2.667" d="M20 6.667h2.667a2.666 2.666 0 0 1 2.667 2.667v16c0 1.467-1.2 2.667-2.667 2.667H9.334c-1.48 0-2.667-1.2-2.667-2.667v-16a2.658 2.658 0 0 1 2.667-2.667h2.667M16 16h4m-4 5.333h4M17.333 4a2.666 2.666 0 1 1 0 5.334h-2.667c-1.48 0-2.667-1.2-2.667-2.667A2.658 2.658 0 0 1 14.666 4h2.667zM12 21.333"/>
    </symbol>
    <symbol id="icon-Icon-3" viewBox="0 0 32 32">
      <path stroke-linejoin="round" stroke-linecap="round" stroke-width="2.667" d="M26.667 8C22.56 8 18.827 6.453 16 3.92A15.963 15.963 0 0 1 5.333 7.987c-.28 0-.56 0-.827-.013a15.96 15.96 0 0 0-.507 4.027c0 7.453 5.093 13.707 12 15.493 6.893-1.787 12-8.04 12-15.493 0-1.4-.187-2.747-.52-4.027-.267.013-.547.027-.813.027zM12 16l2.667 2.667L20 13.334"/>
    </symbol>
    <symbol id="icon-Icon-4" viewBox="0 0 32 32">
      <path stroke-linejoin="round" stroke-linecap="round" stroke-width="2.667" d="M16 28C9.36 28 4 22.627 4 16 4 9.36 9.36 4 16 4c6.627 0 12 5.36 12 12 0 6.627-5.373 12-12 12zm-4-12 2.667 2.667L20 13.334"/>
    </symbol>
    <!-- Partner -->
    <symbol id="icon-Airbnb-Logo" viewBox="0 0 104 32">
      <path fill="#ff385c" style="fill:var(--color3, #ff385c)" d="M29.774 22.67c-.165-.384-.315-.795-.48-1.152l-.754-1.659-.027-.041c-2.249-4.8-4.635-9.669-7.173-14.469l-.11-.206c-.247-.466-.507-.987-.768-1.467-.329-.576-.645-1.179-1.166-1.769A5.465 5.465 0 0 0 17.431.481c-.713-.329-1.509-.507-2.304-.507s-1.591.178-2.318.507a5.602 5.602 0 0 0-1.865 1.426c-.48.59-.837 1.193-1.152 1.769-.261.521-.507 1.029-.782 1.495l-.096.206a394.966 394.966 0 0 0-7.173 14.482l-.055.055c-.233.521-.494 1.056-.741 1.646-.165.343-.329.727-.494 1.138a6.827 6.827 0 0 0-.411 3.47c.178 1.166.658 2.277 1.399 3.209s1.714 1.646 2.825 2.098c1.111.453 2.318.603 3.511.453a8.535 8.535 0 0 0 3.25-1.097c1.317-.727 2.592-1.783 4.018-3.319 1.426 1.536 2.729 2.592 4.018 3.333a8.785 8.785 0 0 0 4.101 1.152c1.659 0 3.278-.59 4.539-1.659s2.098-2.551 2.331-4.169a5.92 5.92 0 0 0-.261-3.511v.014zm-14.633 1.659c-1.742-2.194-2.894-4.21-3.278-5.952a5.227 5.227 0 0 1-.096-1.961c.069-.507.261-.96.521-1.33.617-.878 1.687-1.413 2.853-1.413a3.383 3.383 0 0 1 1.605.343 3.22 3.22 0 0 1 1.248 1.056c.274.398.466.837.521 1.344.11.59.069 1.262-.096 1.961-.398 1.701-1.536 3.744-3.278 5.952zm12.973 1.481a4.766 4.766 0 0 1-.96 2.263 4.994 4.994 0 0 1-1.989 1.495c-.768.315-1.632.398-2.469.315a6.305 6.305 0 0 1-2.455-.837 16.445 16.445 0 0 1-3.703-3.099c2.139-2.606 3.429-4.978 3.922-7.09a7.864 7.864 0 0 0 .165-2.729 5.348 5.348 0 0 0-.878-2.194 5.239 5.239 0 0 0-2.002-1.701 5.366 5.366 0 0 0-2.565-.576c-1.893 0-3.566.85-4.594 2.263a5.208 5.208 0 0 0-.864 2.208 6.677 6.677 0 0 0 .165 2.729c.494 2.112 1.81 4.512 3.922 7.104a14.53 14.53 0 0 1-3.703 3.127 6.347 6.347 0 0 1-2.455.823 4.866 4.866 0 0 1-3.566-.946 4.71 4.71 0 0 1-1.851-3.127c-.11-.795-.027-1.591.288-2.496.11-.315.261-.645.425-1.015.219-.521.48-1.07.741-1.605l.041-.069a317.797 317.797 0 0 1 7.104-14.414l.096-.192c.261-.48.507-1.001.768-1.481.274-.507.549-1.001.919-1.399a3.358 3.358 0 0 1 2.592-1.18 3.37 3.37 0 0 1 2.592 1.18c.357.398.658.891.919 1.399.247.48.507 1.001.768 1.481l.11.192a412.809 412.809 0 0 1 7.131 14.414l.027.027c.261.521.48 1.097.741 1.605.165.384.329.699.425 1.029.192.891.302 1.701.192 2.496zm14.181-1.7a5.134 5.134 0 0 1-2.222-.466 5.034 5.034 0 0 1-1.797-1.358c-1.097-1.248-1.687-2.839-1.632-4.485a6.883 6.883 0 0 1 1.687-4.581 5.475 5.475 0 0 1 1.865-1.385 5.674 5.674 0 0 1 2.29-.48 4.452 4.452 0 0 1 2.139.494 4.314 4.314 0 0 1 1.632 1.426l.096-1.563h2.976v12.082h-2.99l-.096-1.755a4.578 4.578 0 0 1-1.701 1.536 4.575 4.575 0 0 1-2.249.535zm.768-2.88c.59 0 1.111-.151 1.605-.453.453-.315.809-.741 1.097-1.248.261-.507.384-1.111.384-1.797a3.376 3.376 0 0 0-.329-1.714 3.626 3.626 0 0 0-1.166-1.33c-.48-.288-1.029-.439-1.591-.439s-1.111.151-1.591.439a4.028 4.028 0 0 0-1.097 1.248 4.08 4.08 0 0 0-.384 1.81c-.041.59.082 1.179.343 1.714s.658.987 1.152 1.317c.48.302 1.001.453 1.577.453zM54.418 8.448c0 .357-.055.672-.219.933a1.95 1.95 0 0 1-.686.645c-.288.151-.603.219-.933.219s-.658-.069-.946-.219a1.725 1.725 0 0 1-.686-.645 1.83 1.83 0 0 1-.219-.933c0-.357.069-.672.219-.933.165-.288.398-.48.686-.631.288-.165.603-.233.946-.233.315 0 .645.069.933.219.274.151.521.37.699.645.137.288.219.617.206.933zm-3.456 15.305V11.698h3.237v12.069h-3.25l.014-.014zm11.891-8.9v.041c-.151-.069-.357-.096-.507-.137-.206-.027-.37-.027-.562-.027-.905 0-1.591.247-2.03.795-.494.549-.727 1.317-.727 2.304v5.938H55.79V11.685h2.976l.11 1.824c.315-.631.713-1.111 1.262-1.481a3.23 3.23 0 0 1 1.838-.494c.233 0 .466.014.658.055.096.027.165.027.219.069v3.195zm1.303 8.9V6.734h3.237v6.501c.466-.576.974-1.029 1.632-1.385a5.228 5.228 0 0 1 3.319-.398 5.053 5.053 0 0 1 2.866 1.714 6.436 6.436 0 0 1 1.632 4.485 6.883 6.883 0 0 1-1.687 4.581 5.475 5.475 0 0 1-1.865 1.385 5.774 5.774 0 0 1-2.29.48 4.606 4.606 0 0 1-2.139-.48 4.473 4.473 0 0 1-1.632-1.44l-.096 1.563-2.976.027v-.014zm6.267-2.523c.576 0 1.097-.151 1.577-.453a3.755 3.755 0 0 0 1.111-1.248c.261-.507.384-1.111.384-1.797 0-.672-.123-1.275-.384-1.797A3.862 3.862 0 0 0 72 14.687c-.466-.288-1.015-.439-1.577-.439s-1.111.151-1.591.439a3.75 3.75 0 0 0-1.111 1.248 3.91 3.91 0 0 0-.384 1.81c-.041.59.069 1.179.329 1.714.274.535.672.987 1.166 1.317.48.302 1.001.453 1.591.453zm7.639 2.537V11.685h2.99l.096 1.563a4.086 4.086 0 0 1 3.607-1.892 4.276 4.276 0 0 1 2.318.645 4.25 4.25 0 0 1 1.577 1.797c.357.768.549 1.701.549 2.757v7.241h-3.25V16.98c0-.85-.192-1.509-.576-2.002-.398-.48-.919-.741-1.591-.741-.494 0-.919.11-1.289.329-.37.233-.658.521-.878.933a2.57 2.57 0 0 0-.329 1.344v6.926h-3.223zm12.754 0V6.72h3.25v6.501c.439-.576 1.015-1.056 1.673-1.385s1.385-.494 2.126-.507c.768 0 1.522.151 2.222.466s1.303.782 1.797 1.371a6.477 6.477 0 0 1 1.618 4.471 6.857 6.857 0 0 1-1.687 4.581 5.428 5.428 0 0 1-1.865 1.385 5.327 5.327 0 0 1-2.29.48 4.606 4.606 0 0 1-2.139-.48 4.473 4.473 0 0 1-1.632-1.44l-.096 1.563-2.976.041zm6.295-2.537c.59 0 1.111-.151 1.591-.453.453-.315.809-.741 1.111-1.248.247-.507.384-1.111.384-1.797.041-.59-.082-1.179-.343-1.714s-.658-.987-1.152-1.33c-.48-.288-1.029-.439-1.591-.439s-1.111.151-1.591.439a3.7 3.7 0 0 0-1.097 1.248 3.458 3.458 0 0 0-.384 1.81c-.041.59.069 1.179.329 1.714s.658.987 1.166 1.317c.48.302.96.453 1.577.453z"/>
    </symbol>
    <symbol id="icon-FedEx-Logo" viewBox="0 0 108 32">
      <path fill="#f60" style="fill:var(--color4, #f60)" d="m79.974 31.042 8.982-9.86-8.982-9.86h9.465l4.447 4.798 4.286-4.798h9.128l-8.923 9.816 9.04 9.904h-9.494l-4.403-4.827-4.359 4.827h-9.187zM79.974 6.905H69.822v4.418h10.152v6.671H69.822v6.1h10.152v6.949H62.347V.001h17.627v6.905z"/>
      <path fill="#652c8f" style="fill:var(--color5, #652c8f)" d="M54.916 0v12.698h-.073c-1.653-1.858-3.716-2.487-6.1-2.487-4.886 0-8.572 3.248-9.86 7.534-1.477-4.725-5.281-7.636-10.913-7.636-4.579 0-8.192 2.019-10.079 5.296v-4.081H8.426V6.921h10.328V.002H0v31.042h8.426V17.995h8.411c-.249.951-.38 1.975-.38 3.057 0 6.48 5.061 11.015 11.513 11.015 5.427 0 9.011-2.487 10.898-7.022h-7.227c-.98 1.36-1.712 1.77-3.672 1.77-2.267 0-4.213-1.946-4.213-4.228h14.716c.629 5.135 4.74 9.582 10.357 9.582a7.256 7.256 0 0 0 6.012-3.145h.073v2.019h7.431V.001h-7.431zM23.991 18.081c.468-1.975 2.033-3.262 3.979-3.262 2.15 0 3.643 1.243 4.023 3.262h-8.002zm26.419 8.221c-2.75 0-4.447-2.487-4.447-5.091 0-2.794 1.477-5.471 4.447-5.471 3.072 0 4.286 2.677 4.286 5.471 0 2.633-1.287 5.091-4.286 5.091z"/>
    </symbol>
    <symbol id="icon-OYO-Logo" viewBox="0 0 85 32">
      <path fill="#ee2e24" style="fill:var(--color6, #ee2e24)" d="M69.641 30.638c8.037 0 14.592-6.597 14.592-14.702 0-8.119-6.555-14.716-14.592-14.716-8.05 0-14.592 6.597-14.592 14.716 0 8.105 6.542 14.702 14.592 14.702zm0-19.955c2.866 0 5.198 2.359 5.198 5.239 0 2.894-2.331 5.239-5.198 5.239-2.88 0-5.211-2.345-5.211-5.239s2.345-5.239 5.211-5.239zM14.578 30.638c8.05 0 14.592-6.597 14.592-14.702 0-8.119-6.542-14.716-14.592-14.716C6.541 1.22 0 7.817 0 15.936c0 8.105 6.542 14.702 14.578 14.702zm0-19.955c2.88 0 5.211 2.359 5.211 5.239 0 2.894-2.331 5.239-5.211 5.239-2.866 0-5.198-2.345-5.198-5.239s2.345-5.239 5.198-5.239zm27.525-.329-4.485-8.942H27.14l9.792 19.557v9.202h10.341v-9.202l9.806-19.557H46.574l-4.471 8.942z"/>
    </symbol>
    <symbol id="icon-Google-Logo" viewBox="0 0 96 32">
      <path fill="#ea4335" style="fill:var(--color7, #ea4335)" d="M40.759 16.402c0 4.443-3.511 7.721-7.831 7.721s-7.845-3.278-7.845-7.721c0-4.471 3.525-7.707 7.845-7.707s7.831 3.237 7.831 7.707zm-3.429 0c0-2.77-2.043-4.677-4.402-4.677-2.373 0-4.416 1.906-4.416 4.677 0 2.743 2.043 4.677 4.416 4.677 2.359 0 4.402-1.934 4.402-4.677z"/>
      <path fill="#fbbc05" style="fill:var(--color8, #fbbc05)" d="M57.669 16.402c0 4.443-3.525 7.721-7.845 7.721-4.306 0-7.831-3.278-7.831-7.721 0-4.471 3.525-7.707 7.831-7.707 4.32 0 7.845 3.237 7.845 7.707zm-3.429 0c0-2.77-2.043-4.677-4.416-4.677-2.359 0-4.402 1.906-4.402 4.677 0 2.743 2.043 4.677 4.402 4.677 2.373 0 4.416-1.934 4.416-4.677z"/>
      <path fill="#4285f4" style="fill:var(--color9, #4285f4)" d="M73.865 9.161v13.838c0 5.705-3.401 8.037-7.419 8.037-3.785 0-6.062-2.51-6.926-4.553l2.99-1.221c.521 1.248 1.824 2.729 3.936 2.729 2.565 0 4.169-1.563 4.169-4.526v-1.097h-.123c-.768.933-2.249 1.742-4.114 1.742-3.909 0-7.488-3.36-7.488-7.68 0-4.347 3.579-7.735 7.488-7.735 1.865 0 3.346.809 4.114 1.714h.123V9.161h3.25zm-3.017 7.269c0-2.715-1.824-4.704-4.169-4.704-2.359 0-4.347 1.989-4.347 4.704 0 2.688 1.989 4.649 4.347 4.649 2.345 0 4.169-1.961 4.169-4.649z"/>
      <path fill="#34a853" style="fill:var(--color10, #34a853)" d="M79.241 1.042v22.601h-3.346V1.042h3.346z"/>
      <path fill="#ea4335" style="fill:var(--color7, #ea4335)" d="m92.284 18.939 2.661 1.755c-.864 1.262-2.935 3.415-6.514 3.415-4.43 0-7.749-3.387-7.749-7.707 0-4.594 3.346-7.721 7.365-7.721 4.059 0 6.034 3.195 6.693 4.91l.343.878-10.437 4.279c.795 1.536 2.043 2.331 3.785 2.331s2.962-.85 3.854-2.139zm-8.201-2.77 6.981-2.866c-.384-.96-1.536-1.632-2.894-1.632-1.755 0-4.169 1.522-4.087 4.498z"/>
      <path fill="#4285f4" style="fill:var(--color9, #4285f4)" d="M12.425 14.4v-3.278h11.163c.11.576.165 1.248.165 1.975 0 2.455-.672 5.499-2.866 7.653-2.139 2.194-4.855 3.36-8.462 3.36C5.746 24.11.123 18.734.123 12.137S5.746.151 12.425.151c3.703 0 6.336 1.44 8.311 3.305l-2.345 2.318c-1.413-1.317-3.333-2.345-5.966-2.345-4.882 0-8.709 3.881-8.709 8.709 0 4.814 3.826 8.709 8.709 8.709 3.168 0 4.965-1.262 6.117-2.4.946-.919 1.563-2.249 1.797-4.046h-7.913z"/>
    </symbol>
    <symbol id="icon-Amazon-Logo" viewBox="0 0 103 32">
      <path fill="#f90" style="fill:var(--color11, #f90)" d="M63.909 25.015c-5.979 4.553-14.661 6.981-22.135 6.981-10.478 0-19.913-3.991-27.045-10.642-.562-.521-.055-1.234.617-.823 7.694 4.622 17.225 7.392 27.058 7.392 6.638 0 13.934-1.413 20.64-4.347 1.015-.439 1.865.686.864 1.44z"/>
      <path fill="#f90" style="fill:var(--color11, #f90)" d="M66.405 22.08c-.768-1.001-5.061-.466-6.994-.233-.576.069-.672-.453-.137-.837 3.415-2.482 9.038-1.769 9.682-.933.658.837-.165 6.638-3.387 9.408-.48.425-.96.192-.741-.37.727-1.851 2.345-6.021 1.577-7.035z"/>
      <path fill="#1d1e25" style="fill:var(--color12, #1d1e25)" d="M59.548 3.483V1.069c0-.357.274-.603.59-.603h10.491c.329 0 .603.247.603.603V3.14c-.014.343-.288.795-.795 1.522l-5.431 7.982c2.016-.041 4.155.261 5.979 1.33.411.233.521.59.562.933v2.578c0 .357-.384.768-.782.549-3.223-1.742-7.502-1.934-11.067.014-.357.206-.741-.192-.741-.549v-2.441c0-.398 0-1.07.384-1.659l6.295-9.312H60.15a.583.583 0 0 1-.603-.603zM21.312 18.542H18.13a.629.629 0 0 1-.576-.562V1.111c0-.329.274-.603.617-.603h2.976a.618.618 0 0 1 .576.562v2.208h.055C22.56 1.152 24.013.151 25.975.151c2.002 0 3.25 1.001 4.142 3.127.768-2.126 2.523-3.127 4.402-3.127 1.344 0 2.798.576 3.703 1.851 1.001 1.413.795 3.483.795 5.28v10.656a.611.611 0 0 1-.617.603h-3.182c-.315-.027-.576-.288-.576-.603V8.996c0-.713.055-2.496-.096-3.168-.233-1.125-.946-1.454-1.865-1.454-.782 0-1.591.535-1.906 1.385-.329.85-.302 2.277-.302 3.237v8.942a.611.611 0 0 1-.617.603h-3.182a.612.612 0 0 1-.576-.603V8.996c0-1.879.302-4.649-1.961-4.649-2.304 0-2.208 2.688-2.208 4.649v8.942a.611.611 0 0 1-.617.603zM80.256.151c4.731 0 7.282 4.197 7.282 9.518 0 5.143-2.825 9.23-7.282 9.23-4.649 0-7.173-4.197-7.173-9.408 0-5.253 2.551-9.339 7.173-9.339zm.028 3.442c-2.359 0-2.496 3.305-2.496 5.362s-.041 6.459 2.469 6.459c2.469 0 2.578-3.552 2.578-5.705 0-1.426-.055-3.127-.466-4.485-.357-1.166-1.07-1.632-2.085-1.632zM93.683 18.542h-3.182a.61.61 0 0 1-.562-.603l-.014-16.882a.623.623 0 0 1 .617-.549h2.962a.611.611 0 0 1 .562.48v2.578h.055c.891-2.304 2.153-3.415 4.347-3.415 1.44 0 2.825.535 3.73 1.989.823 1.358.823 3.621.823 5.253v10.615a.598.598 0 0 1-.603.535h-3.209a.626.626 0 0 1-.562-.535V8.847c0-1.838.206-4.539-1.989-4.539-.782 0-1.495.535-1.851 1.344-.439 1.042-.507 2.057-.507 3.195v9.093a.611.611 0 0 1-.617.603zM51.196 10.491v-.713c-2.304 0-4.745.507-4.745 3.305 0 1.413.713 2.386 1.947 2.386.891 0 1.701-.576 2.194-1.495.631-1.138.603-2.208.603-3.483zm3.209 8.01c-.206.192-.507.206-.754.069-1.056-.905-1.248-1.317-1.824-2.181-1.742 1.838-2.99 2.386-5.253 2.386-2.688 0-4.773-1.701-4.773-5.129 0-2.661 1.399-4.471 3.401-5.362 1.728-.782 4.142-.933 5.993-1.138v-.425c0-.782.055-1.714-.398-2.386-.384-.603-1.125-.85-1.783-.85-1.221 0-2.29.631-2.565 1.975-.055.288-.261.576-.549.59l-3.099-.343c-.261-.055-.549-.274-.466-.686.699-3.867 4.101-5.019 7.131-5.019 1.55 0 3.579.425 4.8 1.632 1.55 1.495 1.399 3.483 1.399 5.65v5.115c0 1.55.617 2.222 1.207 3.058.206.288.247.645-.014.864a180.69 180.69 0 0 0-2.441 2.181h-.014zM9.394 10.491v-.713c-2.318 0-4.745.507-4.745 3.305 0 1.413.713 2.386 1.934 2.386.905 0 1.701-.576 2.208-1.495.631-1.138.603-2.208.603-3.483zm3.209 8.01c-.206.192-.507.206-.754.069-1.056-.905-1.248-1.317-1.824-2.181-1.755 1.838-2.99 2.386-5.266 2.386C2.085 18.775 0 17.074 0 13.646c0-2.661 1.399-4.471 3.387-5.362 1.742-.782 4.155-.933 6.007-1.138v-.425c0-.782.055-1.714-.384-2.386-.398-.603-1.138-.85-1.797-.85-1.221 0-2.304.645-2.565 1.975-.055.288-.261.576-.549.59L1 5.707c-.261-.055-.549-.274-.48-.686C1.233 1.154 4.621.002 7.651.002c1.563 0 3.579.425 4.814 1.632 1.55 1.495 1.399 3.483 1.399 5.65v5.115c0 1.55.617 2.222 1.207 3.058.206.288.247.645-.014.864a180.69 180.69 0 0 0-2.441 2.181h-.014z"/>
    </symbol>
    <symbol id="icon-Microsoft-Logo" viewBox="0 0 150 32">
      <path fill="#737373" style="fill:var(--color13, #737373)" d="m53.018 18.415-.895 2.532h-.084a20.244 20.244 0 0 0-.861-2.481L46.367 6.448h-4.692v19.175h3.106V13.791c0-.743 0-1.587-.017-2.633-.034-.523-.084-.928-.101-1.215h.068c.152.743.321 1.283.456 1.637l5.756 13.993h2.194l5.722-14.128c.118-.321.253-.962.371-1.502h.068a154.161 154.161 0 0 0-.135 3.443v12.153h3.308V6.398H57.93l-4.912 12.018zm12.575-6.616h3.241v13.74h-3.241v-13.74zm1.637-5.807c-.54 0-.979.203-1.367.54a1.81 1.81 0 0 0-.574 1.35c0 .523.203.962.574 1.317a2 2 0 0 0 1.367.523c.557 0 1.03-.203 1.367-.523.388-.354.574-.793.574-1.317s-.186-.962-.574-1.35c-.321-.338-.793-.54-1.367-.54zm13.064 5.688a8.269 8.269 0 0 0-1.823-.203c-1.469 0-2.802.321-3.916.962-1.131.641-2.025 1.536-2.599 2.667-.591 1.131-.895 2.447-.895 3.967 0 1.317.304 2.481.878 3.545.574 1.047 1.367 1.89 2.431 2.447 1.03.574 2.211.878 3.561.878 1.536 0 2.853-.321 3.899-.928l.034-.017v-2.971l-.135.084c-.473.354-1.013.658-1.553.827-.574.203-1.097.304-1.553.304-1.283 0-2.312-.371-3.038-1.198-.743-.793-1.114-1.89-1.114-3.258 0-1.401.371-2.515 1.148-3.342.776-.81 1.789-1.232 3.038-1.232 1.046 0 2.11.338 3.072 1.03l.135.101v-3.14l-.034-.034c-.422-.169-.895-.371-1.536-.489zm10.668-.101c-.793 0-1.536.253-2.194.76-.54.456-.911 1.097-1.232 1.874h-.034v-2.414h-3.224v13.74h3.224v-7.022c0-1.182.253-2.177.793-2.903.557-.743 1.249-1.114 2.093-1.114.304 0 .591.084.962.135.354.084.608.186.776.321l.135.101v-3.224l-.084-.034c-.219-.152-.675-.219-1.215-.219zm8.811-.084c-2.279 0-4.085.675-5.351 1.992-1.3 1.317-1.924 3.123-1.924 5.401 0 2.144.658 3.882 1.89 5.148 1.249 1.232 2.937 1.874 5.047 1.874 2.211 0 3.984-.658 5.249-2.009 1.3-1.333 1.924-3.123 1.924-5.334 0-2.177-.608-3.916-1.823-5.182-1.165-1.266-2.886-1.89-5.013-1.89zm2.582 10.566c-.608.776-1.553 1.148-2.718 1.148s-2.11-.371-2.785-1.182c-.675-.776-.996-1.89-.996-3.308 0-1.468.354-2.583.996-3.376.675-.793 1.587-1.182 2.768-1.182 1.131 0 2.025.371 2.684 1.131.641.776.996 1.89.996 3.359-.051 1.485-.321 2.65-.945 3.41zm11.461-4.557c-1.013-.422-1.671-.743-1.958-1.013-.253-.253-.388-.591-.388-1.046 0-.371.152-.743.523-.996.388-.236.81-.371 1.418-.371.557 0 1.131.101 1.671.253s1.046.371 1.452.675l.118.101v-3.038l-.084-.017a8.04 8.04 0 0 0-1.452-.422 9.997 9.997 0 0 0-1.604-.152c-1.536 0-2.802.371-3.798 1.198-.996.76-1.469 1.806-1.469 3.021 0 .641.101 1.215.321 1.688s.54.911.996 1.283c.439.354 1.097.743 1.992 1.114.743.321 1.317.574 1.671.776.338.203.557.422.743.591.118.203.203.456.203.776 0 .911-.709 1.367-2.127 1.367-.54 0-1.114-.101-1.789-.338a6.714 6.714 0 0 1-1.806-.911l-.135-.101v3.156l.084.017c.473.219 1.046.371 1.739.557.692.118 1.317.219 1.857.219 1.671 0 3.038-.371 4.017-1.198.996-.793 1.502-1.806 1.502-3.123 0-.911-.236-1.739-.793-2.363a9.763 9.763 0 0 0-2.903-1.705zm12.238-6.009c-2.262 0-4.085.675-5.351 1.992s-1.907 3.123-1.907 5.401c0 2.144.641 3.882 1.89 5.148 1.232 1.232 2.92 1.874 5.047 1.874 2.211 0 3.967-.658 5.249-2.009 1.283-1.333 1.907-3.123 1.907-5.334 0-2.177-.591-3.916-1.823-5.182-1.165-1.266-2.869-1.89-5.013-1.89zm2.565 10.566c-.608.776-1.553 1.148-2.718 1.148-1.198 0-2.11-.371-2.785-1.182-.675-.776-.996-1.89-.996-3.308 0-1.468.354-2.583.996-3.376.675-.793 1.587-1.182 2.768-1.182 1.114 0 2.025.371 2.684 1.131.641.776.996 1.89.996 3.359 0 1.485-.338 2.65-.945 3.41zm21.555-7.612v-2.65h-3.258V7.731l-.101.034-3.156.928v3.106h-4.878V10.06c0-.793.203-1.418.557-1.806.338-.405.861-.591 1.502-.591.456 0 .928.101 1.452.321l.118.068V5.25l-.068-.017c-.456-.152-1.047-.253-1.823-.253-.962 0-1.806.219-2.583.591a4.275 4.275 0 0 0-1.772 1.772c-.422.743-.641 1.587-.641 2.549v1.907h-2.262v2.633h2.262v11.107h3.258v-11.09h4.878v7.072c0 2.903 1.367 4.372 4.102 4.372.456 0 .911-.084 1.367-.152.473-.101.827-.219 1.013-.321l.034-.034v-2.65l-.118.101a2.587 2.587 0 0 1-1.333.405c-.641 0-1.08-.152-1.418-.523-.287-.354-.439-.928-.439-1.772v-6.498h3.308z"/>
      <path fill="#f25022" style="fill:var(--color14, #f25022)" d="M0 0h15.242v15.191H0V0z"/>
      <path fill="#7fba00" style="fill:var(--color15, #7fba00)" d="M16.829 0h15.242v15.191H16.829V0z"/>
      <path fill="#00a4ef" style="fill:var(--color16, #00a4ef)" d="M0 16.778h15.242v15.208H0V16.778z"/>
      <path fill="#ffb900" style="fill:var(--color17, #ffb900)" d="M16.829 16.778h15.242v15.208H16.829V16.778z"/>
    </symbol>
    <symbol id="icon-Walmart-Logo" viewBox="0 0 108 32">
      <path fill="#041e42" style="fill:var(--color18, #041e42)" d="M39.864 8.175V9.47h.034c.473-.698 1.261-1.509 3.007-1.509 1.363 0 2.41.676 2.849 1.712h.045c.383-.529.822-.923 1.306-1.194.586-.338 1.227-.529 2.038-.529 1.836 0 3.468 1.182 3.468 4.167v5.653h-2.804v-5.259c0-1.509-.552-2.387-1.7-2.387a1.77 1.77 0 0 0-1.689 1.171 2.537 2.537 0 0 0-.113.777v5.698h-2.804v-5.473c0-1.284-.529-2.173-1.667-2.173-.901 0-1.475.664-1.7 1.227a2.12 2.12 0 0 0-.135.788v5.63h-2.804V8.175h2.669zm27.218 0v1.802h.079c.518-1.374 1.734-2.016 2.815-2.016.27 0 .417.011.631.056v2.511c-.259-.034-.495-.068-.833-.068-1.216 0-2.061.653-2.275 1.689a3.421 3.421 0 0 0-.056.709v4.91H64.56V8.174h2.522zm7.432-3.186v3.029h2.432v2.444h-2.432v3.604c0 1.171.327 1.734 1.272 1.734.45 0 .777-.056 1.059-.124l.045 2.027c-.383.135-1.205.282-2.027.282-.968 0-1.779-.315-2.275-.8-.563-.563-.822-1.475-.822-2.77V4.99h2.748zM35.236 17.77h-2.793V4.989h2.793V17.77zm-7.444-3.423c0 .169-.011.36-.068.518-.214.664-.957 1.227-1.881 1.227-.777 0-1.385-.405-1.385-1.273 0-1.318 1.565-1.678 3.345-1.678v1.205h-.011zm2.793-2.298c0-2.185-1.002-4.088-4.38-4.088-1.734 0-3.108.45-3.863.856l.552 1.745c.687-.405 1.779-.743 2.815-.743 1.712 0 1.993.912 1.993 1.486v.135c-3.739 0-6.092 1.194-6.092 3.649 0 1.498 1.194 2.894 3.288 2.894 1.284 0 2.365-.473 3.007-1.239h.056s.428 1.655 2.781 1.025c-.124-.687-.158-1.43-.158-2.309v-3.412zM7.579 4.989c.293 1.351 1.115 5.281 1.115 5.281.338 1.61.653 3.311.901 4.639h.034c.236-1.419.608-2.759.991-4.426l1.385-5.495h3.052l1.295 5.63c.338 1.565.608 2.781.822 4.234h.034c.236-1.475.541-2.725.867-4.335l1.25-5.529h2.928l-3.637 12.781c-2.308.473-3.198-.394-3.513-1.768s-.935-3.986-.935-3.986c-.327-1.441-.574-2.444-.743-3.919h-.045c-.248 1.464-.507 2.477-.89 3.908l-1.52 5.766c-2.365.439-3.187-.214-3.637-1.971L4.506 5H7.58v-.011zm52.329 9.358c0 .169-.011.36-.068.518-.214.664-.957 1.227-1.881 1.227-.777 0-1.385-.405-1.385-1.273 0-1.318 1.554-1.678 3.333-1.678v1.205zm2.793-2.298c0-2.185-1.002-4.088-4.38-4.088-1.734 0-3.108.45-3.862.856l.552 1.745c.687-.405 1.779-.743 2.815-.743 1.712 0 1.993.912 1.993 1.486v.135c-3.739 0-6.092 1.194-6.092 3.649 0 1.498 1.205 2.894 3.288 2.894 1.284 0 2.365-.473 3.007-1.239h.056s.428 1.655 2.781 1.025c-.124-.687-.158-1.43-.158-2.309v-3.412z"/>
      <path fill="#ffc124" style="fill:var(--color19, #ffc124)" d="M88.263 13.367c.282.473.259.991-.034 1.227l-5.079 3.468c-.529.293-1.318-.068-1.768-.822s-.372-1.61.158-1.903l5.619-2.545c.36-.135.833.113 1.104.574zm6.689 0c.27-.462.743-.709 1.104-.574l5.619 2.545c.529.293.608 1.137.158 1.903-.45.754-1.239 1.115-1.768.811l-5.079-3.457c-.293-.236-.315-.766-.034-1.227zm-3.344 1.88c.552 0 1.002.282 1.07.642l.552 6.013c0 .597-.721 1.081-1.622 1.081s-1.61-.484-1.61-1.081l.541-6.013c.068-.36.518-.642 1.07-.642zm3.378-6.858 5.079-3.468c.529-.293 1.318.056 1.768.822.45.754.372 1.599-.158 1.903l-5.619 2.545c-.36.124-.833-.113-1.104-.574-.282-.473-.259-.991.034-1.227zm-7.826 1.802-5.619-2.545c-.529-.304-.608-1.149-.158-1.903.45-.766 1.239-1.115 1.768-.822l5.079 3.468c.293.236.315.754.034 1.227-.27.462-.743.698-1.104.574zm3.378-3.097-.541-6.013c0-.597.709-1.081 1.61-1.081s1.622.484 1.622 1.081l-.552 6.013c-.068.36-.518.642-1.07.642s-1.002-.282-1.07-.642zm12.669 10.935v-.146h.135c.056 0 .079.034.079.079s-.023.068-.079.068h-.135zm-.113.281c0 .011.011.023.034.023h.056c.011 0 .034-.011.034-.023v-.169h.09l.079.18c.011.011.011.011.023.011h.079c.023 0 .034-.011.023-.034-.023-.056-.056-.113-.079-.169.045-.023.113-.068.113-.169 0-.113-.09-.18-.191-.18h-.225c-.023 0-.034.011-.034.023v.507zm-.248-.247c0-.248.203-.45.45-.45s.45.203.45.45a.442.442 0 0 1-.45.439.45.45 0 0 1-.45-.439zm-.112 0c0 .293.248.541.563.541.304 0 .563-.248.563-.541a.563.563 0 0 0-.563-.552.556.556 0 0 0-.563.552z"/>
    </symbol>
    <symbol id="icon-OLA-logo" viewBox="0 0 92 32">
      <path fill="#1d1e25" style="fill:var(--color12, #1d1e25)" d="m81.317 14.908-5.873 10.197-5.008.013L81.317 5.924l10.842 19.194h-5.086l-5.757-10.21zm-15.811 5.77h5.615l-2.607 4.44h-7.319l.026-5.408V6.041h4.298l-.013 14.637zM50.12 6.041c5.344.026 9.668 4.285 9.655 9.552-.026 5.24-4.35 9.513-9.706 9.513-5.331-.026-9.655-4.285-9.655-9.552.026-5.253 4.35-9.513 9.706-9.513zm-.026 14.624c2.865 0 5.163-2.272 5.163-5.073.026-2.801-2.298-5.086-5.137-5.086-2.853-.026-5.176 2.259-5.176 5.06-.026 2.801 2.298 5.098 5.15 5.098zm-17.657-6.583a14.635 14.635 0 0 0-3.704-8.429c-.762-.826-1.626-1.601-2.904-2.504a47.544 47.544 0 0 1-2.891-1.562C22.318 1.238 21.583.8 20.602.49a15.834 15.834 0 0 0-3.55-.452 14.628 14.628 0 0 0-3.446.271c-1.188.194-2.168.516-3.472.826-2.943 1.278-5.228 3.214-7.189 5.783-6.854 9.642-.671 23.156 10.778 24.757 1.884.258 3.769.155 5.55-.258l1.265-.336a.293.293 0 0 1 .142-.039l1.446-.555a3.03 3.03 0 0 1 .219-.103l.594-.271a16.712 16.712 0 0 0 3.227-2.104 19.38 19.38 0 0 1-2.93 2.181l.065.039c.207-.052.387-.116.581-.155 0 0 0 .31-.039.258-.323.232.181.013.826-.323a10.714 10.714 0 0 0 1.82-1.213c.826-.697 1.549-1.446 2.569-2.672 1.033-1.833 2.336-3.433 2.943-5.576a12.747 12.747 0 0 0 .697-4.066 14.394 14.394 0 0 0-.258-2.401zM17.606 30.294c3.511-.555 6.454-2.504 8.855-5.176.671-.968 1.188-1.846 1.833-2.814.8-1.975.736-3.73.994-4.969.323-2.259-.439-4.066-1.071-6.002-.994-2.246-2.285-3.924-4.569-5.228-5.783-3.588-13.63-2.582-17.386 2.788-.013 0-.116.129-.31.413.258-1.11.916-1.755 1.575-2.388 1.962-1.613 4.247-2.904 6.854-3.537 2.956-.31 5.873 0 8.493 1.291 3.937 2.246 6.544 5.77 7.202 9.952v3.872c-.826 6.325-6.234 11.139-12.469 11.797zm14.418-14.405C31.882 6.621 22.718.361 13.799 1.626c-2.607.658-5.447 1.962-7.473 3.769-.981.658-1.446 1.859-2.427 2.827-3.924 5.77-3.24 13.179 1.639 17.67.632.62 1.304 1.2 2.014 1.743C3.46 25.157 1.615 21.426.969 16.896c0-1.613.323-3.214.671-4.827C3.925 4.983 11.114-.167 18.949 1.136c1.304.323 2.607.658 3.937.968 1.639.645 3.266 1.613 4.569 2.904 1.304 1.278 2.285 2.891 3.266 4.492.658 1.278.981 2.904 1.304 4.182a15.63 15.63 0 0 1 0 2.207z"/>
      <path fill="#fff" style="fill:var(--color2, #fff)" d="M23.879 16.031c0 3.988-3.33 7.215-7.435 7.215s-7.435-3.227-7.435-7.215 3.33-7.215 7.435-7.215 7.435 3.227 7.435 7.215z"/>
      <path fill="#d7df23" style="fill:var(--color20, #d7df23)" d="M23.918 14.805c-.09-.555-.258-.981-.413-1.601-.645-1.342-1.588-2.388-2.827-3.266-4.647-3.098-11.049-.116-11.72 5.163-.271 2.091.478 4.105 1.794 5.641-.4-.413-.839-.839-1.136-1.342l-.039.039c.039.116.194.207.232.323 0 0-.155 0-.116-.026-.116-.129-.013.077.155.374s.361.581.607.839c.336.374.697.71 1.304 1.162.878.452 1.665 1.046 2.685 1.317.284.077.607.155.916.219.348.052.671.077 1.033.077a6.55 6.55 0 0 0 1.136-.116 8.032 8.032 0 0 0 1.342-.284 6.842 6.842 0 0 0 2.646-1.497c.387-.349.929-.8 1.342-1.394.349-.671.387-1.007.542-1.304s.361-.632.503-1.084a8.766 8.766 0 0 0 .194-1.639c-.013-.555-.052-1.084-.181-1.601zm-4.763-3.666c.684.387.774.452.413.194.529.116.852.413 1.162.71.787.891 1.433 1.936 1.743 3.137.181 1.368.052 2.724-.529 3.924-1.046 1.833-2.711 3.059-4.698 3.395-.219 0-.452 0-.684.026.568-.103.929-.465 1.949-.839 1.097-.387 2.349-2.22 2.943-3.291 1.768-2.891-.323-5.576-2.298-7.254zm-3.769 11.398c-3.046-.31-5.395-2.814-5.718-5.718.284 1.613 1.252 2.865 2.556 3.963.452.297 1.136.71 1.601 1.007.774.297 1.239.62 2.001.749h-.439zm8.196-5.267c-.142.62-.284 1.2-.426 1.82-.297.749-.736 1.51-1.342 2.13-.594.607-1.355 1.084-2.117 1.536-.607.31-1.368.478-1.988.632-.361.039-.787-.116-1.149-.142 4.453-.116 7.499-4.272 6.841-8.403-.323-1.2-.968-2.246-1.743-3.291-.323-.452-.942-.736-1.407-1.188-2.788-1.755-6.467-1.394-8.571.916-.297.297-.568.62-.826.955 1.123-1.652 2.93-2.814 5.086-3.149.762-.026 1.549.116 2.31.258 3.369 1.02 5.873 4.298 5.331 7.925z"/>
    </symbol>
     <!-- Benefit -->
    <symbol id="icon-benefit_1" viewBox="0 0 32 32">
      <path d="M16 32C7.15 32 0 24.833 0 16 0 7.15 7.15 0 16 0c8.833 0 16 7.15 16 16 0 8.833-7.167 16-16 16zm6-18.017c-1.117 0-2-.883-2-2 0-1.1.883-1.983 2-1.983a1.991 1.991 0 1 1 0 3.983zm-14.017-2c0 1.117.9 2 2.017 2A1.991 1.991 0 1 0 10 10c-1.117 0-2.017.883-2.017 1.983zm.934 11.084c-.783-.783-.783-2.05 0-2.833s2.05-.783 2.833 0c2.35 2.35 6.15 2.35 8.483 0 .783-.783 2.05-.783 2.833 0s.783 2.05 0 2.833c-3.9 3.9-10.233 3.9-14.15 0z"/>
    </symbol>
    <symbol id="icon-benefit_2" viewBox="0 0 38 32">
      <path d="M19.182 12.782c3.538 0 6.418-2.862 6.418-6.382 0-3.538-2.88-6.4-6.418-6.4-3.52 0-6.382 2.862-6.382 6.4a6.388 6.388 0 0 0 6.382 6.382zm-12.8 2.134c2.364 0 4.284-1.902 4.284-4.249A4.272 4.272 0 0 0 6.382 6.4a4.252 4.252 0 0 0-4.249 4.267 4.249 4.249 0 0 0 4.249 4.249zm25.618 0c2.347 0 4.267-1.902 4.267-4.249A4.268 4.268 0 0 0 32 6.4a4.271 4.271 0 0 0-4.284 4.267c0 2.347 1.92 4.249 4.284 4.249zm-4.284 10.666a8.51 8.51 0 0 0-8.533-8.516 8.505 8.505 0 0 0-8.516 8.516V32h17.049v-6.418zm-21.334 0c0-2.24.587-4.356 1.6-6.187-.498-.142-1.031-.196-1.6-.196A6.388 6.388 0 0 0 0 25.581v6.418h6.382v-6.418zM32 32v-6.418c0-2.24-.587-4.356-1.6-6.187.498-.142 1.031-.196 1.6-.196a6.388 6.388 0 0 1 6.382 6.382v6.418H32z"/>
    </symbol>
    <symbol id="icon-benefit_3" viewBox="0 0 51 32">
      <path d="M32 6.373c-1.787 0-3.227-1.413-3.227-3.173 0-1.787 1.44-3.2 3.227-3.2h16c1.76 0 3.2 1.413 3.2 3.2v16c0 1.76-1.44 3.173-3.2 3.173-1.787 0-3.227-1.413-3.227-3.173v-8.293L31.04 24.64c-1.253 1.253-3.28 1.253-4.507 0L19.2 17.307 5.44 31.04c-1.227 1.253-3.253 1.253-4.507 0s-1.253-3.28 0-4.507l16-16c1.253-1.253 3.28-1.253 4.507 0l7.333 7.333L40.266 6.373h-8.267z"/>
    </symbol>
    <symbol id="icon-benefit_4" viewBox="0 0 34 32">
      <path d="M2.133 0H32a2.125 2.125 0 1 1 0 4.249v17.084c0 2.347-1.92 4.249-4.284 4.249h-5.511l2.756 2.773a2.113 2.113 0 0 1 0 3.004 2.113 2.113 0 0 1-3.004 0L17.05 26.47l-4.889 4.889c-.836.836-2.169.836-3.004 0s-.836-2.187 0-3.004l2.756-2.773H6.384a4.249 4.249 0 0 1-4.249-4.249V4.249A2.113 2.113 0 0 1 .002 2.133C.002.942.944 0 2.135 0zm24.96 10.027c.836-.836.836-2.187 0-3.004a2.113 2.113 0 0 0-3.004 0l-7.04 7.022-2.756-2.756a2.113 2.113 0 0 0-3.004 0l-4.267 4.267a2.113 2.113 0 0 0 0 3.004 2.113 2.113 0 0 0 3.004 0l2.773-2.756 2.756 2.756a2.113 2.113 0 0 0 3.004 0l8.533-8.533z"/>
    </symbol>
    <!-- Trending -->
    <symbol id="icon-trending_icon" viewBox="0 0 32 32">
      <path stroke-linejoin="round" stroke-linecap="round" stroke-width="2.667" d="M20 10.667 25.333 16 20 21.333m-8 0L6.667 16 12 10.667"/>
    </symbol>
    <symbol id="icon-Star" viewBox="0 0 32 32">
      <path fill="#ffd33c" style="fill:var(--color21, #ffd33c)" d="m17.96 1.26 3.24 6.88c.32.68.94 1.14 1.64 1.24l7.28 1.12c1.8.26 2.5 2.58 1.2 3.9l-5.24 5.34c-.52.52-.76 1.28-.64 2.02l1.24 7.56c.3 1.86-1.58 3.28-3.18 2.4L17 28.16c-.62-.36-1.4-.36-2.02 0l-6.5 3.56c-1.6.88-3.48-.54-3.18-2.4l1.24-7.56c.12-.74-.12-1.5-.64-2.02L.66 14.4c-1.3-1.32-.58-3.64 1.2-3.9l7.28-1.12c.7-.1 1.32-.56 1.64-1.24l3.24-6.88c.8-1.7 3.14-1.7 3.94 0z"/>
    </symbol>
    <symbol id="icon-left-arrow" viewBox="0 0 32 32">
      <path d="M15.52 26.72c-.62.62-1.64.62-2.26 0l-9.6-9.6c-.62-.62-.62-1.64 0-2.26l9.6-9.6c.62-.62 1.64-.62 2.26 0s.62 1.64 0 2.26L8.66 14.4H27.2c.88 0 1.6.7 1.6 1.6 0 .88-.72 1.6-1.6 1.6H8.66l6.86 6.86c.62.62.62 1.64 0 2.26z"/>
    </symbol>
    <symbol id="icon-right-arrow" viewBox="0 0 32 32">
      <path d="M16.46 5.26c.62-.62 1.64-.62 2.26 0l9.6 9.6c.62.62.62 1.64 0 2.26l-9.6 9.6c-.62.62-1.64.62-2.26 0s-.62-1.64 0-2.26l6.86-6.88H4.78c-.88 0-1.6-.7-1.6-1.58 0-.9.72-1.62 1.6-1.62h18.54l-6.86-6.86c-.62-.62-.62-1.64 0-2.26z"/>
    </symbol>
    <symbol id="icon-fb" viewBox="0 0 32 32">
      <path d="M32 16c0-8.84-7.173-16-16-16C7.16 0 0 7.16 0 16c0 7.973 5.84 14.6 13.493 15.8V20.613H9.426V16h4.067v-3.533c0-4.013 2.387-6.227 6.04-6.227 1.747 0 3.587.32 3.587.32v3.933h-2.013c-2 0-2.613 1.24-2.613 2.507v3h4.44l-.707 4.613h-3.733V31.8c7.653-1.2 13.507-7.827 13.507-15.8z"/>
    </symbol>
    <symbol id="icon-twiter" viewBox="0 0 32 32">
      <path d="M10.053 29c12.08 0 18.68-10.013 18.68-18.68 0-.28 0-.573-.013-.853a13.698 13.698 0 0 0 3.28-3.4c-1.2.533-2.48.88-3.773 1.027a6.49 6.49 0 0 0 2.88-3.627 13.259 13.259 0 0 1-4.16 1.6 6.548 6.548 0 0 0-3.733-1.987 6.553 6.553 0 0 0-4.16.693 6.586 6.586 0 0 0-2.88 3.08 6.59 6.59 0 0 0-.427 4.2c-2.6-.133-5.16-.813-7.48-2a18.577 18.577 0 0 1-6.04-4.867c-.84 1.453-1.093 3.16-.72 4.787s1.36 3.053 2.747 3.987a6.675 6.675 0 0 1-2.973-.827v.08a6.558 6.558 0 0 0 5.267 6.44 6.34 6.34 0 0 1-2.96.107 6.554 6.554 0 0 0 2.333 3.267 6.51 6.51 0 0 0 3.8 1.307 13.218 13.218 0 0 1-8.16 2.813c-.52 0-1.04-.04-1.56-.107 3 1.933 6.493 2.96 10.053 2.96z"/>
    </symbol>
    <symbol id="icon-instagram" viewBox="0 0 32 32">
      <path d="M16 2.88c4.267 0 4.773.013 6.453.093 1.56.067 2.413.32 2.973.547.747.28 1.28.64 1.84 1.187.56.573.907 1.093 1.187 1.84.227.56.48 1.413.547 2.973.08 1.68.107 2.187.107 6.467 0 4.267-.027 4.773-.107 6.453-.067 1.56-.32 2.413-.547 2.973-.28.747-.64 1.28-1.187 1.84-.573.56-1.093.907-1.84 1.187-.56.227-1.413.48-2.973.56-1.68.067-2.187.093-6.453.093-4.28 0-4.787-.027-6.467-.093-1.56-.08-2.413-.333-2.973-.56-.747-.28-1.28-.64-1.84-1.187a4.81 4.81 0 0 1-1.187-1.84c-.227-.56-.48-1.413-.547-2.973-.08-1.68-.107-2.187-.107-6.453 0-4.28.027-4.787.107-6.467.067-1.56.32-2.413.547-2.973.28-.747.64-1.28 1.187-1.84.573-.56 1.093-.907 1.84-1.187.56-.227 1.413-.48 2.973-.547 1.68-.08 2.187-.093 6.467-.093zM16 0c-4.347 0-4.893.013-6.6.093C7.693.16 6.533.44 5.52.826c-1.053.413-1.947.96-2.84 1.853S1.24 4.466.827 5.506C.44 6.533.16 7.693.094 9.386c-.08 1.72-.093 2.267-.093 6.613 0 4.333.013 4.88.093 6.587.067 1.707.347 2.867.733 3.88a7.917 7.917 0 0 0 1.853 2.84c.893.88 1.787 1.44 2.827 1.84 1.027.4 2.187.667 3.88.747 1.72.08 2.253.093 6.6.093s4.893-.013 6.6-.093c1.693-.08 2.867-.347 3.88-.747 1.04-.4 1.933-.96 2.827-1.84a7.771 7.771 0 0 0 1.84-2.827c.4-1.027.667-2.187.747-3.88.08-1.707.093-2.253.093-6.6s-.013-4.893-.093-6.6c-.08-1.693-.347-2.867-.747-3.88-.387-1.053-.933-1.947-1.827-2.84-.893-.88-1.787-1.44-2.827-1.84-1.027-.4-2.187-.667-3.88-.747-1.72-.08-2.267-.093-6.6-.093z"/>
      <path d="M16 7.773A8.223 8.223 0 0 0 7.773 16c0 4.533 3.68 8.213 8.227 8.213A8.217 8.217 0 0 0 24.213 16c0-4.547-3.68-8.227-8.213-8.227zm0 13.547c-2.947 0-5.333-2.387-5.333-5.32A5.332 5.332 0 0 1 16 10.667a5.327 5.327 0 0 1 0 10.653zM26.453 7.453a1.92 1.92 0 0 1-1.92 1.92 1.93 1.93 0 0 1-1.92-1.92 1.92 1.92 0 0 1 3.84 0z"/>
    </symbol>
    <symbol id="icon-linkedin" viewBox="0 0 32 32">
      <path d="M29.627 0H2.36C1.053 0 0 1.027 0 2.293V29.68C0 30.96 1.053 32 2.36 32h27.267C30.934 32 32 30.96 32 29.693v-27.4C32 1.026 30.933 0 29.627 0zM9.493 27.267h-4.76v-15.28h4.76v15.28zM7.107 9.907c-1.52 0-2.747-1.227-2.747-2.747S5.587 4.4 7.107 4.4c1.52 0 2.76 1.24 2.76 2.76a2.763 2.763 0 0 1-2.76 2.747zm20.16 17.36H22.52V19.84c0-1.773-.027-4.053-2.467-4.053-2.467 0-2.853 1.933-2.853 3.92v7.56h-4.733v-15.28h4.547v2.093h.067c.627-1.2 2.187-2.48 4.493-2.48 4.8 0 5.693 3.173 5.693 7.28v8.387z"/>
    </symbol>
    <symbol id="icon-sign" viewBox="0 0 43 32">
      <path d="M17.855 23.16h-13.17l8.431-22.872h8.645l-3.906 22.872zM34.932 23.16h-13.095l8.431-22.872h8.57l-3.906 22.872z">
      </path>
      <path d="M12.903 0l-8.495 23.053-0.139 0.406h13.832l4.013-23.459h-9.211zM30.054 0l-8.495 23.053-0.139 0.406h13.757l4.013-23.459h-9.136zM5.006 23.16h-0.32l0.117-0.299 8.314-22.573h8.645l-0.043 0.299-3.864 22.573h-12.85zM22.157 23.16h-0.32l0.117-0.299 8.314-22.573h8.57l-0.043 0.299-3.864 22.573h-12.775z">
      </path>
    </symbol>
  </defs>
</svg>
