<svg width="75.735352" height="23.333252" viewBox="0 0 75.7354 23.3333" fill="none" xmlns="http://www.w3.org/2000/svg" xmlns:xlink="http://www.w3.org/1999/xlink">
	<desc>
			Created with Pixso.
	</desc>
	<defs>
		<clipPath id="clip266_7872">
			<rect id="Airbnb Logo" rx="0.000000" width="74.950218" height="22.548260" transform="translate(0.392537 0.392537)" fill="white" fill-opacity="0"/>
		</clipPath>
	</defs>
	<rect id="Airbnb Logo" rx="0.000000" width="74.950218" height="22.548260" transform="translate(0.392537 0.392537)" fill="#FFFFFF" fill-opacity="0"/>
	<g clip-path="url(#clip266_7872)">
		<path id="Vector" d="M21.71 16.53C21.59 16.25 21.48 15.95 21.36 15.69L20.81 14.48L20.79 14.45C19.15 10.95 17.41 7.4 15.56 3.9L15.48 3.75C15.3 3.41 15.11 3.03 14.92 2.68C14.68 2.26 14.45 1.82 14.07 1.39C13.7 0.95 13.24 0.6 12.71 0.35C12.19 0.11 11.61 -0.02 11.03 -0.02C10.45 -0.02 9.87 0.11 9.34 0.35C8.82 0.6 8.35 0.95 7.98 1.39C7.63 1.82 7.37 2.26 7.14 2.68C6.95 3.06 6.77 3.43 6.57 3.77L6.5 3.92C4.68 7.42 2.91 10.98 1.27 14.48L1.23 14.52C1.06 14.9 0.87 15.29 0.69 15.72C0.57 15.97 0.45 16.25 0.33 16.55C0.01 17.36 -0.09 18.23 0.03 19.08C0.16 19.93 0.51 20.74 1.05 21.42C1.59 22.1 2.3 22.62 3.11 22.95C3.92 23.28 4.8 23.39 5.67 23.28C6.51 23.18 7.31 22.9 8.04 22.48C9 21.95 9.93 21.18 10.97 20.06C12.01 21.18 12.96 21.95 13.9 22.49C14.81 23.01 15.84 23.3 16.89 23.33C18.1 23.33 19.28 22.9 20.2 22.12C21.12 21.34 21.73 20.26 21.9 19.08C22.1 18.23 22.03 17.34 21.71 16.52L21.71 16.53ZM11.04 17.74C9.77 16.14 8.93 14.67 8.65 13.4C8.54 12.94 8.51 12.45 8.58 11.97C8.63 11.6 8.77 11.27 8.96 11C9.41 10.36 10.19 9.97 11.04 9.97C11.45 9.96 11.85 10.04 12.21 10.22C12.58 10.4 12.89 10.66 13.12 10.99C13.32 11.28 13.46 11.6 13.5 11.97C13.58 12.4 13.55 12.89 13.43 13.4C13.14 14.64 12.31 16.13 11.04 17.74ZM20.5 18.82C20.42 19.42 20.17 19.99 19.8 20.47C19.42 20.95 18.92 21.32 18.35 21.56C17.79 21.79 17.16 21.85 16.55 21.79C15.96 21.72 15.36 21.53 14.76 21.18C13.75 20.56 12.84 19.8 12.06 18.92C13.62 17.02 14.56 15.29 14.92 13.75C15.09 13.02 15.11 12.37 15.04 11.76C14.95 11.19 14.73 10.64 14.4 10.16C14.03 9.63 13.53 9.21 12.94 8.92C12.36 8.63 11.72 8.48 11.07 8.5C9.69 8.5 8.47 9.12 7.72 10.15C7.39 10.63 7.17 11.19 7.09 11.76C7 12.38 7.02 13.05 7.21 13.75C7.57 15.29 8.53 17.04 10.07 18.93C9.31 19.83 8.4 20.6 7.37 21.21C6.76 21.56 6.17 21.74 5.58 21.81C4.65 21.93 3.72 21.68 2.98 21.12C2.24 20.57 1.76 19.75 1.63 18.84C1.55 18.26 1.61 17.68 1.84 17.02C1.92 16.79 2.03 16.55 2.15 16.28C2.31 15.9 2.5 15.5 2.69 15.11L2.72 15.06C4.32 11.58 6.08 8.03 7.9 4.55L7.97 4.41C8.16 4.06 8.34 3.68 8.53 3.33C8.73 2.96 8.93 2.6 9.2 2.31C9.43 2.04 9.72 1.82 10.05 1.67C10.37 1.52 10.73 1.45 11.09 1.45C11.45 1.45 11.81 1.52 12.13 1.67C12.46 1.82 12.75 2.04 12.98 2.31C13.24 2.6 13.46 2.96 13.65 3.33C13.83 3.68 14.02 4.06 14.21 4.41L14.29 4.55C16.1 8.03 17.85 11.58 19.49 15.06L19.51 15.08C19.7 15.46 19.86 15.88 20.05 16.25C20.17 16.53 20.29 16.76 20.36 17C20.5 17.65 20.58 18.24 20.5 18.82ZM30.84 17.58C30.28 17.59 29.72 17.47 29.22 17.24C28.71 17.01 28.26 16.67 27.91 16.25C27.11 15.34 26.68 14.18 26.72 12.98C26.71 11.76 27.14 10.57 27.95 9.64C28.32 9.21 28.79 8.87 29.31 8.63C29.83 8.4 30.4 8.28 30.98 8.28C31.52 8.27 32.06 8.39 32.54 8.64C33.02 8.88 33.43 9.24 33.73 9.68L33.8 8.54L35.97 8.54L35.97 17.35L33.79 17.35L33.72 16.07C33.41 16.54 32.98 16.93 32.48 17.19C31.98 17.46 31.41 17.59 30.84 17.58ZM31.4 15.48C31.83 15.48 32.21 15.37 32.57 15.15C32.9 14.92 33.16 14.61 33.37 14.24C33.56 13.87 33.65 13.43 33.65 12.93C33.68 12.5 33.6 12.07 33.41 11.68C33.21 11.29 32.92 10.96 32.56 10.71C32.21 10.5 31.81 10.39 31.4 10.39C30.99 10.39 30.59 10.5 30.24 10.71C29.92 10.95 29.65 11.25 29.44 11.62C29.25 12.03 29.15 12.48 29.16 12.94C29.13 13.37 29.22 13.8 29.41 14.19C29.6 14.58 29.89 14.91 30.25 15.15C30.6 15.37 30.98 15.48 31.4 15.48ZM39.68 6.16C39.68 6.42 39.64 6.65 39.52 6.84C39.4 7.02 39.24 7.19 39.02 7.31C38.81 7.42 38.58 7.47 38.34 7.47C38.1 7.47 37.86 7.42 37.65 7.31C37.44 7.2 37.27 7.04 37.15 6.84C37.04 6.63 36.98 6.4 36.99 6.16C36.99 5.9 37.04 5.67 37.15 5.48C37.27 5.27 37.44 5.13 37.65 5.02C37.86 4.9 38.09 4.85 38.34 4.85C38.57 4.85 38.81 4.9 39.02 5.01C39.22 5.12 39.4 5.28 39.53 5.48C39.63 5.69 39.69 5.93 39.68 6.16ZM37.16 17.32L37.16 8.53L39.52 8.53L39.52 17.33L37.15 17.33L37.16 17.32ZM45.83 10.83L45.83 10.86C45.72 10.81 45.57 10.79 45.46 10.76C45.31 10.74 45.19 10.74 45.05 10.74C44.39 10.74 43.89 10.92 43.57 11.32C43.21 11.72 43.04 12.28 43.04 13L43.04 17.33L40.68 17.33L40.68 8.52L42.85 8.52L42.93 9.85C43.16 9.39 43.45 9.04 43.85 8.77C44.25 8.52 44.72 8.39 45.19 8.41C45.36 8.41 45.53 8.42 45.67 8.45C45.74 8.47 45.79 8.47 45.83 8.5L45.83 10.83ZM46.78 17.32L46.78 4.91L49.14 4.91L49.14 9.65C49.48 9.23 49.85 8.9 50.33 8.64C51.08 8.28 51.94 8.18 52.75 8.35C53.57 8.52 54.31 8.96 54.84 9.6C55.64 10.5 56.07 11.67 56.03 12.87C56.04 14.09 55.61 15.28 54.8 16.21C54.43 16.64 53.96 16.98 53.44 17.22C52.91 17.45 52.34 17.57 51.77 17.57C51.23 17.58 50.69 17.46 50.21 17.22C49.73 16.97 49.32 16.61 49.02 16.17L48.95 17.31L46.78 17.33L46.78 17.32ZM51.35 15.48C51.77 15.48 52.15 15.37 52.5 15.15C52.83 14.92 53.1 14.61 53.31 14.24C53.5 13.87 53.59 13.43 53.59 12.93C53.59 12.44 53.5 12 53.31 11.62C53.11 11.27 52.84 10.95 52.5 10.71C52.16 10.5 51.76 10.39 51.35 10.39C50.94 10.39 50.54 10.5 50.19 10.71C49.85 10.95 49.59 11.25 49.38 11.62C49.18 12.03 49.09 12.48 49.1 12.94C49.07 13.37 49.15 13.8 49.34 14.19C49.54 14.58 49.83 14.91 50.19 15.15C50.54 15.37 50.92 15.48 51.35 15.48ZM56.92 17.33L56.92 8.52L59.1 8.52L59.17 9.66C59.45 9.22 59.83 8.87 60.3 8.62C60.76 8.38 61.28 8.26 61.8 8.28C62.4 8.27 62.99 8.44 63.49 8.75C64 9.07 64.39 9.53 64.64 10.06C64.9 10.62 65.04 11.3 65.04 12.07L65.04 17.35L62.67 17.35L62.67 12.38C62.67 11.76 62.53 11.28 62.25 10.92C61.96 10.57 61.58 10.38 61.09 10.38C60.73 10.38 60.42 10.46 60.15 10.62C59.88 10.79 59.67 11 59.51 11.3C59.34 11.6 59.26 11.94 59.27 12.28L59.27 17.33L56.92 17.33ZM66.22 17.33L66.22 4.9L68.59 4.9L68.59 9.64C68.91 9.22 69.33 8.87 69.81 8.63C70.29 8.39 70.82 8.27 71.36 8.26C71.92 8.26 72.47 8.37 72.98 8.6C73.49 8.83 73.93 9.17 74.29 9.6C75.08 10.5 75.51 11.67 75.47 12.86C75.48 14.09 75.05 15.27 74.24 16.2C73.86 16.63 73.4 16.98 72.88 17.21C72.35 17.45 71.78 17.57 71.21 17.56C70.67 17.57 70.13 17.45 69.65 17.21C69.17 16.96 68.76 16.6 68.46 16.16L68.39 17.3L66.22 17.33ZM70.81 15.48C71.24 15.48 71.62 15.37 71.97 15.15C72.3 14.92 72.56 14.61 72.78 14.24C72.96 13.87 73.06 13.43 73.06 12.93C73.09 12.5 73 12.07 72.81 11.68C72.62 11.29 72.33 10.96 71.97 10.71C71.62 10.5 71.22 10.39 70.81 10.39C70.4 10.39 70 10.5 69.65 10.71C69.32 10.95 69.05 11.25 68.85 11.62C68.64 12.03 68.54 12.48 68.57 12.94C68.54 13.37 68.62 13.8 68.81 14.19C69 14.58 69.29 14.91 69.66 15.15C70.01 15.37 70.36 15.48 70.81 15.48Z" fill="#FF385C" fill-opacity="1.000000" fill-rule="nonzero"/>
	</g>
</svg>
