<svg width="75.129883" height="23.333252" viewBox="0 0 75.1299 23.3333" fill="none" xmlns="http://www.w3.org/2000/svg" xmlns:xlink="http://www.w3.org/1999/xlink">
	<desc>
			Created with Pixso.
	</desc>
	<defs>
		<clipPath id="clip266_7876">
			<rect id="Amazon Logo" rx="0.000000" width="74.344337" height="22.548260" transform="translate(0.392537 0.392537)" fill="white" fill-opacity="0"/>
		</clipPath>
	</defs>
	<rect id="Amazon Logo" rx="0.000000" width="74.344337" height="22.548260" transform="translate(0.392537 0.392537)" fill="#FFFFFF" fill-opacity="0"/>
	<g clip-path="url(#clip266_7876)">
		<path id="path8" d="M46.6 18.24C42.24 21.56 35.91 23.33 30.46 23.33C22.82 23.33 15.94 20.42 10.74 15.57C10.33 15.19 10.7 14.67 11.19 14.97C16.8 18.34 23.75 20.36 30.92 20.36C35.76 20.36 41.08 19.33 45.97 17.19C46.71 16.87 47.33 17.69 46.6 18.24Z" fill="#FF9900" fill-opacity="1.000000" fill-rule="evenodd"/>
		<path id="path10" d="M48.42 16.1C47.86 15.37 44.73 15.76 43.32 15.93C42.9 15.98 42.83 15.6 43.22 15.32C45.71 13.51 49.81 14.03 50.28 14.64C50.76 15.25 50.16 19.48 47.81 21.5C47.46 21.81 47.11 21.64 47.27 21.23C47.8 19.88 48.98 16.84 48.42 16.1Z" fill="#FF9900" fill-opacity="1.000000" fill-rule="evenodd"/>
		<path id="path12" d="M43.42 2.54L43.42 0.78C43.42 0.52 43.62 0.34 43.85 0.34L51.5 0.34C51.74 0.34 51.94 0.52 51.94 0.78L51.94 2.29C51.93 2.54 51.73 2.87 51.36 3.4L47.4 9.22C48.87 9.19 50.43 9.41 51.76 10.19C52.06 10.36 52.14 10.62 52.17 10.87L52.17 12.75C52.17 13.01 51.89 13.31 51.6 13.15C49.25 11.88 46.13 11.74 43.53 13.16C43.27 13.31 42.99 13.02 42.99 12.76L42.99 10.98C42.99 10.69 42.99 10.2 43.27 9.77L47.86 2.98L43.86 2.98C43.62 2.98 43.42 2.81 43.42 2.54Z" fill="#1D1E25" fill-opacity="1.000000" fill-rule="evenodd"/>
		<path id="path14" d="M15.54 13.52L13.22 13.52C13 13.5 12.82 13.33 12.8 13.11L12.8 0.81C12.8 0.57 13 0.37 13.25 0.37L15.42 0.37C15.64 0.38 15.82 0.56 15.84 0.78L15.84 2.39L15.88 2.39C16.45 0.84 17.51 0.11 18.94 0.11C20.4 0.11 21.31 0.84 21.96 2.39C22.52 0.84 23.8 0.11 25.17 0.11C26.15 0.11 27.21 0.53 27.87 1.46C28.6 2.49 28.45 4 28.45 5.31L28.45 13.08C28.45 13.32 28.25 13.52 28 13.52L25.68 13.52C25.45 13.5 25.26 13.31 25.26 13.08L25.26 6.56C25.26 6.04 25.3 4.74 25.19 4.25C25.02 3.43 24.5 3.19 23.83 3.19C23.26 3.19 22.67 3.58 22.44 4.2C22.2 4.82 22.22 5.86 22.22 6.56L22.22 13.08C22.22 13.32 22.02 13.52 21.77 13.52L19.45 13.52C19.21 13.5 19.03 13.31 19.03 13.08L19.03 6.56C19.03 5.19 19.25 3.17 17.6 3.17C15.92 3.17 15.99 5.13 15.99 6.56L15.99 13.08C15.99 13.32 15.79 13.52 15.54 13.52Z" fill="#1D1E25" fill-opacity="1.000000" fill-rule="evenodd"/>
		<path id="path16" d="M58.52 0.11C61.97 0.11 63.83 3.17 63.83 7.05C63.83 10.8 61.77 13.78 58.52 13.78C55.13 13.78 53.29 10.72 53.29 6.92C53.29 3.09 55.15 0.11 58.52 0.11ZM58.54 2.62C56.82 2.62 56.72 5.03 56.72 6.53C56.72 8.03 56.69 11.24 58.52 11.24C60.32 11.24 60.4 8.65 60.4 7.08C60.4 6.04 60.36 4.8 60.06 3.81C59.8 2.96 59.28 2.62 58.54 2.62Z" fill="#1D1E25" fill-opacity="1.000000" fill-rule="evenodd"/>
		<path id="path18" d="M68.31 13.52L65.99 13.52C65.76 13.5 65.58 13.31 65.58 13.08L65.57 0.77C65.59 0.55 65.79 0.37 66.02 0.37L68.18 0.37C68.38 0.38 68.54 0.52 68.59 0.72L68.59 2.6L68.63 2.6C69.28 0.92 70.2 0.11 71.8 0.11C72.85 0.11 73.86 0.5 74.52 1.56C75.12 2.55 75.12 4.2 75.12 5.39L75.12 13.13C75.1 13.35 74.91 13.52 74.68 13.52L72.34 13.52C72.13 13.5 71.96 13.34 71.93 13.13L71.93 6.45C71.93 5.11 72.08 3.14 70.48 3.14C69.91 3.14 69.39 3.53 69.13 4.12C68.81 4.88 68.76 5.62 68.76 6.45L68.76 13.08C68.76 13.32 68.56 13.52 68.31 13.52Z" fill="#1D1E25" fill-opacity="1.000000" fill-rule="evenodd"/>
		<path id="path28" d="M37.33 7.65C37.33 8.58 37.35 9.36 36.89 10.19C36.53 10.86 35.94 11.28 35.29 11.28C34.39 11.28 33.87 10.57 33.87 9.54C33.87 7.5 35.65 7.13 37.33 7.13L37.33 7.65ZM39.67 13.49C39.52 13.63 39.3 13.64 39.12 13.54C38.35 12.88 38.21 12.58 37.79 11.95C36.52 13.29 35.61 13.69 33.96 13.69C32 13.69 30.48 12.45 30.48 9.95C30.48 8.01 31.5 6.69 32.96 6.04C34.22 5.47 35.98 5.36 37.33 5.21L37.33 4.9C37.33 4.33 37.37 3.65 37.04 3.16C36.76 2.72 36.22 2.54 35.74 2.54C34.85 2.54 34.07 3 33.87 3.98C33.83 4.19 33.68 4.4 33.47 4.41L31.21 4.16C31.02 4.12 30.81 3.96 30.87 3.66C31.38 0.84 33.86 0 36.07 0C37.2 0 38.68 0.31 39.57 1.19C40.7 2.28 40.59 3.73 40.59 5.31L40.59 9.04C40.59 10.17 41.04 10.66 41.47 11.27C41.62 11.48 41.65 11.74 41.46 11.9C40.99 12.31 40.14 13.07 39.68 13.49L39.67 13.49Z" fill="#1D1E25" fill-opacity="1.000000" fill-rule="evenodd"/>
		<path id="path30" d="M6.85 7.65C6.85 8.58 6.87 9.36 6.41 10.19C6.04 10.86 5.46 11.28 4.8 11.28C3.91 11.28 3.39 10.57 3.39 9.54C3.39 7.5 5.16 7.13 6.85 7.13L6.85 7.65ZM9.19 13.49C9.04 13.63 8.82 13.64 8.64 13.54C7.87 12.88 7.73 12.58 7.31 11.95C6.03 13.29 5.13 13.69 3.47 13.69C1.52 13.69 0 12.45 0 9.95C0 8.01 1.02 6.69 2.47 6.04C3.74 5.47 5.5 5.36 6.85 5.21L6.85 4.9C6.85 4.33 6.89 3.65 6.57 3.16C6.28 2.72 5.74 2.54 5.26 2.54C4.37 2.54 3.58 3.01 3.39 3.98C3.35 4.19 3.2 4.4 2.99 4.41L0.73 4.16C0.54 4.12 0.33 3.96 0.38 3.66C0.9 0.84 3.37 0 5.58 0C6.72 0 8.19 0.31 9.09 1.19C10.22 2.28 10.11 3.73 10.11 5.31L10.11 9.04C10.11 10.17 10.56 10.66 10.99 11.27C11.14 11.48 11.17 11.74 10.98 11.9C10.51 12.31 9.66 13.07 9.2 13.49L9.19 13.49Z" fill="#1D1E25" fill-opacity="1.000000" fill-rule="evenodd"/>
	</g>
</svg>
