<svg width="19.200195" height="18.000000" viewBox="0 0 19.2002 18" fill="none" xmlns="http://www.w3.org/2000/svg" xmlns:xlink="http://www.w3.org/1999/xlink">
	<desc>
			Created with Pixso.
	</desc>
	<defs/>
	<path id="benefit_4" d="M1.2 0C0.53 0 0 0.53 0 1.2C0 1.86 0.53 2.39 1.2 2.39L1.2 12C1.2 13.32 2.27 14.39 3.59 14.39L6.7 14.39L5.15 15.95C4.68 16.41 4.68 17.17 5.15 17.64C5.62 18.11 6.37 18.11 6.84 17.64L9.59 14.89L12.35 17.64C12.82 18.11 13.58 18.11 14.04 17.64C14.51 17.17 14.51 16.41 14.04 15.95L12.49 14.39L15.59 14.39C16.92 14.39 18 13.32 18 12L18 2.39C18.66 2.39 19.2 1.86 19.2 1.2C19.2 0.53 18.66 0 18 0L1.2 0ZM15.24 5.64C15.71 5.17 15.71 4.41 15.24 3.95C14.78 3.48 14.02 3.48 13.55 3.95L9.59 7.9L8.04 6.35C7.58 5.88 6.82 5.88 6.35 6.35L3.95 8.75C3.48 9.22 3.48 9.97 3.95 10.44C4.41 10.91 5.17 10.91 5.64 10.44L7.2 8.89L8.75 10.44C9.21 10.91 9.97 10.91 10.44 10.44L15.24 5.64Z" fill="#FFFFFF" fill-opacity="1.000000" fill-rule="evenodd"/>
</svg>
