<svg width="19.200195" height="19.199951" viewBox="0 0 19.2002 19.2" fill="none" xmlns="http://www.w3.org/2000/svg" xmlns:xlink="http://www.w3.org/1999/xlink">
	<desc>
			Created with Pixso.
	</desc>
	<defs/>
	<path id="benefit_1" d="M9.6 19.2C4.29 19.2 0 14.9 0 9.6C0 4.29 4.29 0 9.6 0C14.9 0 19.2 4.29 19.2 9.6C19.2 14.9 14.9 19.2 9.6 19.2ZM13.2 8.39C12.53 8.39 12 7.86 12 7.19C12 6.53 12.53 6 13.2 6C13.86 6 14.4 6.53 14.4 7.19C14.4 7.86 13.86 8.39 13.2 8.39ZM4.79 7.19C4.79 7.86 5.33 8.39 6 8.39C6.66 8.39 7.2 7.86 7.2 7.19C7.2 6.53 6.66 6 6 6C5.33 6 4.79 6.53 4.79 7.19ZM5.35 13.84C4.88 13.37 4.88 12.61 5.35 12.14C5.82 11.67 6.58 11.67 7.05 12.14C8.46 13.55 10.74 13.55 12.14 12.14C12.61 11.67 13.37 11.67 13.84 12.14C14.31 12.61 14.31 13.37 13.84 13.84C11.5 16.18 7.7 16.18 5.35 13.84Z" fill="#FFFFFF" fill-opacity="1.000000" fill-rule="evenodd"/>
</svg>
