<svg width="19.200195" height="12.000000" viewBox="0 0 19.2002 12" fill="none" xmlns="http://www.w3.org/2000/svg" xmlns:xlink="http://www.w3.org/1999/xlink">
	<desc>
			Created with Pixso.
	</desc>
	<defs/>
	<path id="benefit_3" d="M12 2.39C11.33 2.39 10.79 1.86 10.79 1.2C10.79 0.53 11.33 0 12 0L18 0C18.66 0 19.2 0.53 19.2 1.2L19.2 7.2C19.2 7.86 18.66 8.39 18 8.39C17.33 8.39 16.79 7.86 16.79 7.2L16.79 4.09L11.64 9.24C11.17 9.71 10.41 9.71 9.95 9.24L7.2 6.49L2.04 11.64C1.58 12.11 0.82 12.11 0.35 11.64C-0.12 11.17 -0.12 10.41 0.35 9.95L6.35 3.95C6.82 3.48 7.58 3.48 8.04 3.95L10.79 6.7L15.1 2.39L12 2.39Z" fill="#FFFFFF" fill-opacity="1.000000" fill-rule="evenodd"/>
</svg>
