<svg width="21.599609" height="18.000000" viewBox="0 0 21.5996 18" fill="none" xmlns="http://www.w3.org/2000/svg" xmlns:xlink="http://www.w3.org/1999/xlink">
	<desc>
			Created with Pixso.
	</desc>
	<defs/>
	<path id="benefit_2" d="M10.79 7.19C12.78 7.19 14.4 5.58 14.4 3.6C14.4 1.61 12.78 0 10.79 0C8.81 0 7.2 1.61 7.2 3.6C7.2 5.58 8.81 7.19 10.79 7.19ZM3.59 8.39C4.92 8.39 6 7.32 6 6C6 4.67 4.92 3.6 3.59 3.6C2.27 3.6 1.2 4.67 1.2 6C1.2 7.32 2.27 8.39 3.59 8.39ZM18 8.39C19.32 8.39 20.4 7.32 20.4 6C20.4 4.67 19.32 3.6 18 3.6C16.67 3.6 15.59 4.67 15.59 6C15.59 7.32 16.67 8.39 18 8.39ZM15.59 14.39C15.59 11.74 13.45 9.6 10.79 9.6C8.14 9.6 6 11.74 6 14.39L6 18L15.59 18L15.59 14.39ZM3.59 14.39C3.59 13.13 3.92 11.94 4.49 10.91C4.21 10.83 3.91 10.8 3.59 10.8C1.61 10.8 0 12.41 0 14.39L0 18L3.59 18L3.59 14.39ZM18 18L18 14.39C18 13.13 17.67 11.94 17.1 10.91C17.38 10.83 17.68 10.8 18 10.8C19.98 10.8 21.59 12.41 21.59 14.39L21.59 18L18 18Z" fill="#FFFFFF" fill-opacity="1.000000" fill-rule="evenodd"/>
</svg>
