<svg width="73.529297" height="21.875000" viewBox="0 0 73.5293 21.875" fill="none" xmlns="http://www.w3.org/2000/svg" xmlns:xlink="http://www.w3.org/1999/xlink">
	<desc>
			Created with Pixso.
	</desc>
	<defs>
		<clipPath id="clip266_7888">
			<rect id="FedEx Logo" rx="0.000000" width="72.744339" height="21.089926" transform="translate(0.392537 0.392537)" fill="white" fill-opacity="0"/>
		</clipPath>
	</defs>
	<rect id="FedEx Logo" rx="0.000000" width="72.744339" height="21.089926" transform="translate(0.392537 0.392537)" fill="#FFFFFF" fill-opacity="0"/>
	<g clip-path="url(#clip266_7888)">
		<path id="polygon19" d="M54.67 21.22L60.81 14.48L54.67 7.74L61.14 7.74L64.18 11.02L67.11 7.74L73.35 7.74L67.25 14.45L73.43 21.22L66.94 21.22L63.93 17.92L60.95 21.22L54.67 21.22Z" fill="#FF6600" fill-opacity="1.000000" fill-rule="nonzero"/>
		<path id="polygon21" d="M54.67 4.72L47.73 4.72L47.73 7.74L54.67 7.74L54.67 12.3L47.73 12.3L47.73 16.47L54.67 16.47L54.67 21.22L42.62 21.22L42.62 0L54.67 0L54.67 4.72Z" fill="#FF6600" fill-opacity="1.000000" fill-rule="nonzero"/>
		<path id="path23" d="M37.54 0L37.54 8.68L37.49 8.68C36.36 7.41 34.95 6.98 33.32 6.98C29.98 6.98 27.46 9.2 26.58 12.13C25.57 8.9 22.97 6.91 19.12 6.91C15.99 6.91 13.52 8.29 12.23 10.53L12.23 7.74L5.76 7.74L5.76 4.73L12.82 4.73L12.82 0L0 0L0 21.22L5.76 21.22L5.76 12.3L11.51 12.3C11.34 12.95 11.25 13.65 11.25 14.39C11.25 18.82 14.71 21.92 19.12 21.92C22.83 21.92 25.28 20.22 26.57 17.12L21.63 17.12C20.96 18.05 20.46 18.33 19.12 18.33C17.57 18.33 16.24 17 16.24 15.44L26.3 15.44C26.73 18.95 29.54 21.99 33.38 21.99C35.04 21.99 36.56 21.19 37.49 19.84L37.54 19.84L37.54 21.22L42.62 21.22L42.62 0L37.54 0ZM16.4 12.36C16.72 11.01 17.79 10.13 19.12 10.13C20.59 10.13 21.61 10.98 21.87 12.36C21.98 12.36 16.4 12.36 16.4 12.36ZM34.46 17.98C32.58 17.98 31.42 16.28 31.42 14.5C31.42 12.59 32.43 10.76 34.46 10.76C36.56 10.76 37.39 12.59 37.39 14.5C37.39 16.3 36.51 17.98 34.46 17.98Z" fill="#652C8F" fill-opacity="1.000000" fill-rule="nonzero"/>
	</g>
</svg>
