<svg width="69.852539" height="23.333252" viewBox="0 0 69.8525 23.3333" fill="none" xmlns="http://www.w3.org/2000/svg" xmlns:xlink="http://www.w3.org/1999/xlink">
	<desc>
			Created with Pixso.
	</desc>
	<defs>
		<clipPath id="clip266_7915">
			<rect id="Google Logo" rx="0.000000" width="69.067863" height="22.548260" transform="translate(0.392537 0.392537)" fill="white" fill-opacity="0"/>
		</clipPath>
	</defs>
	<rect id="Google Logo" rx="0.000000" width="69.067863" height="22.548260" transform="translate(0.392537 0.392537)" fill="#FFFFFF" fill-opacity="0"/>
	<g clip-path="url(#clip266_7915)">
		<path id="Vector" d="M29.72 11.96C29.72 15.2 27.16 17.59 24.01 17.59C20.86 17.59 18.29 15.2 18.29 11.96C18.29 8.7 20.86 6.34 24.01 6.34C27.16 6.34 29.72 8.7 29.72 11.96ZM27.22 11.96C27.22 9.94 25.73 8.55 24.01 8.55C22.28 8.55 20.79 9.94 20.79 11.96C20.79 13.96 22.28 15.37 24.01 15.37C25.73 15.37 27.22 13.96 27.22 11.96Z" fill="#EA4335" fill-opacity="1.000000" fill-rule="nonzero"/>
		<path id="Vector" d="M42.05 11.96C42.05 15.2 39.48 17.59 36.33 17.59C33.19 17.59 30.62 15.2 30.62 11.96C30.62 8.7 33.19 6.34 36.33 6.34C39.48 6.34 42.05 8.7 42.05 11.96ZM39.55 11.96C39.55 9.94 38.06 8.55 36.33 8.55C34.61 8.55 33.12 9.94 33.12 11.96C33.12 13.96 34.61 15.37 36.33 15.37C38.06 15.37 39.55 13.96 39.55 11.96Z" fill="#FBBC05" fill-opacity="1.000000" fill-rule="nonzero"/>
		<path id="Vector" d="M53.86 6.68L53.86 16.77C53.86 20.93 51.38 22.63 48.45 22.63C45.69 22.63 44.03 20.8 43.4 19.31L45.58 18.42C45.96 19.33 46.91 20.41 48.45 20.41C50.32 20.41 51.49 19.27 51.49 17.11L51.49 16.31L51.4 16.31C50.84 16.99 49.76 17.58 48.4 17.58C45.55 17.58 42.94 15.13 42.94 11.98C42.94 8.81 45.55 6.34 48.4 6.34C49.76 6.34 50.84 6.93 51.4 7.59L51.49 7.59L51.49 6.68L53.86 6.68L53.86 6.68ZM51.66 11.98C51.66 10 50.33 8.55 48.62 8.55C46.9 8.55 45.45 10 45.45 11.98C45.45 13.94 46.9 15.37 48.62 15.37C50.33 15.37 51.66 13.94 51.66 11.98Z" fill="#4285F4" fill-opacity="1.000000" fill-rule="nonzero"/>
		<path id="Vector" d="M57.78 0.76L57.78 17.24L55.34 17.24L55.34 0.76L57.78 0.76Z" fill="#34A853" fill-opacity="1.000000" fill-rule="nonzero"/>
		<path id="Vector" d="M67.29 13.81L69.23 15.09C68.6 16.01 67.09 17.58 64.48 17.58C61.25 17.58 58.83 15.11 58.83 11.96C58.83 8.61 61.27 6.33 64.2 6.33C67.16 6.33 68.6 8.66 69.08 9.91L69.33 10.55L61.72 13.67C62.3 14.79 63.21 15.37 64.48 15.37C65.75 15.37 66.64 14.75 67.29 13.81ZM61.31 11.79L66.4 9.7C66.12 9 65.28 8.51 64.29 8.51C63.01 8.51 61.25 9.62 61.31 11.79Z" fill="#EA4335" fill-opacity="1.000000" fill-rule="nonzero"/>
		<path id="Vector" d="M9.06 10.5L9.06 8.11L17.2 8.11C17.28 8.53 17.32 9.02 17.32 9.55C17.32 11.34 16.83 13.56 15.23 15.13C13.67 16.73 11.69 17.58 9.06 17.58C4.19 17.58 0.09 13.66 0.09 8.85C0.09 4.04 4.19 0.11 9.06 0.11C11.76 0.11 13.68 1.16 15.12 2.52L13.41 4.21C12.38 3.25 10.98 2.5 9.06 2.5C5.5 2.5 2.71 5.33 2.71 8.85C2.71 12.36 5.5 15.2 9.06 15.2C11.37 15.2 12.68 14.28 13.52 13.45C14.21 12.78 14.66 11.81 14.83 10.5L9.06 10.5Z" fill="#4285F4" fill-opacity="1.000000" fill-rule="nonzero"/>
	</g>
</svg>
