<svg width="24.000000" height="24.000000" viewBox="0 0 24 24" fill="none" xmlns="http://www.w3.org/2000/svg" xmlns:xlink="http://www.w3.org/1999/xlink">
	<desc>
			Created with Pixso.
	</desc>
	<defs>
		<clipPath id="clip266_6396">
			<rect id="Icon" rx="0.000000" width="23.000000" height="23.000000" transform="translate(0.500000 0.500000)" fill="white" fill-opacity="0"/>
		</clipPath>
	</defs>
	<g clip-path="url(#clip266_6396)">
		<path id="Icon" d="M20 6C16.92 6 14.12 4.84 12 2.94C9.87 4.84 7.07 5.99 4 5.99C3.79 5.99 3.58 5.99 3.38 5.98C3.13 6.94 3 7.95 3 9C3 14.59 6.82 19.28 12 20.62C17.17 19.28 21 14.59 21 9C21 7.95 20.86 6.94 20.61 5.98C20.41 5.99 20.2 6 20 6ZM9 12L11 14L15 10" stroke="#FFFFFF" stroke-opacity="1.000000" stroke-width="2.000000" stroke-linejoin="round" stroke-linecap="round"/>
	</g>
</svg>
