<svg width="24.000000" height="24.000000" viewBox="0 0 24 24" fill="none" xmlns="http://www.w3.org/2000/svg" xmlns:xlink="http://www.w3.org/1999/xlink">
	<desc>
			Created with Pixso.
	</desc>
	<defs>
		<clipPath id="clip266_6388">
			<rect id="Icon" rx="0.000000" width="23.000000" height="23.000000" transform="translate(0.500000 0.500000)" fill="white" fill-opacity="0"/>
		</clipPath>
	</defs>
	<g clip-path="url(#clip266_6388)">
		<path id="Icon" d="M15 5L17 5C18.1 5 19 5.89 19 7L19 19C19 20.1 18.1 21 17 21L7 21C5.89 21 5 20.1 5 19L5 7C5 5.89 5.89 5 7 5L9 5M9 14L11 16L15 12M13 3C14.1 3 15 3.89 15 5C15 6.1 14.1 7 13 7L11 7C9.89 7 9 6.1 9 5C9 3.89 9.89 3 11 3L13 3Z" stroke="#FFFFFF" stroke-opacity="1.000000" stroke-width="2.000000" stroke-linecap="round"/>
	</g>
</svg>
