<svg width="24.000000" height="24.000000" viewBox="0 0 24 24" fill="none" xmlns="http://www.w3.org/2000/svg" xmlns:xlink="http://www.w3.org/1999/xlink">
	<desc>
			Created with Pixso.
	</desc>
	<defs>
		<clipPath id="clip266_7988">
			<rect id="instagram" rx="0.000000" width="23.500000" height="23.500000" transform="translate(0.250000 0.250000)" fill="white" fill-opacity="0"/>
		</clipPath>
	</defs>
	<rect id="instagram" rx="0.000000" width="23.500000" height="23.500000" transform="translate(0.250000 0.250000)" fill="#FFFFFF" fill-opacity="0"/>
	<g clip-path="url(#clip266_7988)">
		<path id="Vector" d="M12 2.16C15.2 2.16 15.58 2.17 16.84 2.23C18.01 2.28 18.65 2.47 19.07 2.64C19.63 2.85 20.03 3.12 20.45 3.53C20.87 3.96 21.13 4.35 21.34 4.91C21.51 5.33 21.7 5.97 21.75 7.14C21.81 8.4 21.83 8.78 21.83 11.99C21.83 15.19 21.81 15.57 21.75 16.83C21.7 18 21.51 18.64 21.34 19.06C21.13 19.62 20.86 20.02 20.45 20.44C20.02 20.86 19.63 21.12 19.07 21.33C18.65 21.5 18.01 21.69 16.84 21.75C15.58 21.8 15.2 21.82 12 21.82C8.79 21.82 8.41 21.8 7.15 21.75C5.98 21.69 5.34 21.5 4.92 21.33C4.36 21.12 3.96 20.85 3.54 20.44C3.12 20.02 2.86 19.62 2.65 19.06C2.48 18.64 2.29 18 2.24 16.83C2.18 15.57 2.16 15.19 2.16 11.99C2.16 8.78 2.18 8.4 2.24 7.14C2.29 5.97 2.48 5.33 2.65 4.91C2.86 4.35 3.13 3.95 3.54 3.53C3.97 3.11 4.36 2.85 4.92 2.64C5.34 2.47 5.98 2.28 7.15 2.23C8.41 2.17 8.79 2.16 12 2.16ZM12 0C8.74 0 8.33 0.01 7.05 0.07C5.77 0.12 4.9 0.33 4.14 0.62C3.35 0.93 2.68 1.34 2.01 2.01C1.34 2.68 0.93 3.35 0.62 4.13C0.33 4.9 0.12 5.77 0.07 7.04C0.01 8.33 0 8.74 0 12C0 15.25 0.01 15.66 0.07 16.94C0.12 18.22 0.33 19.09 0.62 19.85C0.93 20.64 1.34 21.31 2.01 21.98C2.68 22.64 3.35 23.06 4.13 23.36C4.9 23.66 5.77 23.86 7.04 23.92C8.33 23.98 8.73 23.99 11.99 23.99C15.25 23.99 15.66 23.98 16.94 23.92C18.21 23.86 19.09 23.66 19.85 23.36C20.63 23.06 21.3 22.64 21.97 21.98C22.64 21.31 23.05 20.64 23.35 19.86C23.65 19.09 23.85 18.22 23.91 16.95C23.97 15.67 23.98 15.26 23.98 12C23.98 8.74 23.97 8.33 23.91 7.05C23.85 5.78 23.65 4.9 23.35 4.14C23.06 3.35 22.65 2.68 21.98 2.01C21.31 1.35 20.64 0.93 19.86 0.63C19.09 0.33 18.22 0.13 16.95 0.07C15.66 0.01 15.25 0 12 0Z" fill="#1D1E25" fill-opacity="1.000000" fill-rule="nonzero"/>
		<path id="Vector" d="M12 5.83C8.59 5.83 5.83 8.59 5.83 12C5.83 15.4 8.59 18.16 12 18.16C15.4 18.16 18.16 15.4 18.16 12C18.16 8.59 15.4 5.83 12 5.83ZM12 15.99C9.79 15.99 8 14.2 8 12C8 9.79 9.79 8 12 8C14.2 8 15.99 9.79 15.99 12C15.99 14.2 14.2 15.99 12 15.99Z" fill="#1D1E25" fill-opacity="1.000000" fill-rule="nonzero"/>
		<path id="Vector" d="M19.84 5.59C19.84 6.38 19.2 7.03 18.4 7.03C17.61 7.03 16.96 6.38 16.96 5.59C16.96 4.79 17.61 4.15 18.4 4.15C19.2 4.15 19.84 4.8 19.84 5.59Z" fill="#1D1E25" fill-opacity="1.000000" fill-rule="nonzero"/>
	</g>
</svg>
