<svg width="16.000000" height="16.000000" viewBox="0 0 16 16" fill="none" xmlns="http://www.w3.org/2000/svg" xmlns:xlink="http://www.w3.org/1999/xlink">
	<desc>
			Created with Pixso.
	</desc>
	<defs>
		<clipPath id="clip266_7932">
			<rect id="left arrow" rx="0.000000" width="15.425000" height="15.425000" transform="translate(16.287500 16.287500) rotate(180.000000)" fill="white" fill-opacity="0"/>
		</clipPath>
	</defs>
	<g clip-path="url(#clip266_7932)">
		<path id="Icon" d="M7.76 13.36C7.45 13.67 6.94 13.67 6.63 13.36L1.83 8.56C1.52 8.25 1.52 7.74 1.83 7.43L6.63 2.63C6.94 2.32 7.45 2.32 7.76 2.63C8.07 2.94 8.07 3.45 7.76 3.76L4.33 7.2L13.6 7.2C14.04 7.2 14.4 7.55 14.4 8C14.4 8.44 14.04 8.8 13.6 8.8L4.33 8.8L7.76 12.23C8.07 12.54 8.07 13.05 7.76 13.36Z" fill="#CED1D8" fill-opacity="1.000000" fill-rule="evenodd"/>
	</g>
</svg>
