<svg width="24.000000" height="24.000000" viewBox="0 0 24 24" fill="none" xmlns="http://www.w3.org/2000/svg" xmlns:xlink="http://www.w3.org/1999/xlink">
	<desc>
			Created with Pixso.
	</desc>
	<defs>
		<clipPath id="clip266_7993">
			<rect id="linkedin" rx="0.000000" width="23.500000" height="23.500000" transform="translate(0.250000 0.250000)" fill="white" fill-opacity="0"/>
		</clipPath>
	</defs>
	<rect id="linkedin" rx="0.000000" width="23.500000" height="23.500000" transform="translate(0.250000 0.250000)" fill="#FFFFFF" fill-opacity="0"/>
	<g clip-path="url(#clip266_7993)">
		<path id="Vector" d="M22.22 0L1.77 0C0.79 0 0 0.77 0 1.72L0 22.26C0 23.22 0.79 24 1.77 24L22.22 24C23.2 24 24 23.22 24 22.27L24 1.72C24 0.77 23.2 0 22.22 0ZM7.12 20.45L3.55 20.45L3.55 8.99L7.12 8.99L7.12 20.45ZM5.33 7.43C4.19 7.43 3.27 6.51 3.27 5.37C3.27 4.23 4.19 3.3 5.33 3.3C6.47 3.3 7.4 4.23 7.4 5.37C7.4 6.5 6.47 7.43 5.33 7.43ZM20.45 20.45L16.89 20.45L16.89 14.88C16.89 13.55 16.87 11.84 15.04 11.84C13.19 11.84 12.9 13.29 12.9 14.78L12.9 20.45L9.35 20.45L9.35 8.99L12.76 8.99L12.76 10.56L12.81 10.56C13.28 9.66 14.45 8.7 16.18 8.7C19.78 8.7 20.45 11.08 20.45 14.16L20.45 20.45Z" fill="#1D1E25" fill-opacity="1.000000" fill-rule="nonzero"/>
	</g>
</svg>
