<svg width="112.000000" height="52.000000" viewBox="0 0 112 52" fill="none" xmlns="http://www.w3.org/2000/svg" xmlns:xlink="http://www.w3.org/1999/xlink">
	<desc>
			Created with Pixso.
	</desc>
	<defs/>
	<path id="coca" d="M58.17 30.21L54.51 28.35Q54.41 28.45 54.31 28.55Q53.81 29.01 53.16 29.3Q52.83 29.45 52.48 29.54L52.48 29.54L52.48 29.54Q52.01 29.65 51.52 29.65Q50.74 29.65 50.06 29.39Q49.69 29.25 49.35 29.04Q48.91 28.75 48.54 28.39L48.54 28.39L48.54 28.39Q48.12 27.96 47.82 27.42Q47.56 26.95 47.42 26.44Q47.26 25.85 47.26 25.22Q47.26 24.47 47.48 23.79Q47.61 23.39 47.82 23.03Q48.15 22.43 48.62 21.97Q48.95 21.65 49.35 21.39Q49.72 21.16 50.12 21.01L50.12 21.01L50.12 21.01Q50.77 20.76 51.52 20.76C52.07 20.76 52.61 20.88 53.13 21.11C53.66 21.34 54.12 21.66 54.51 22.08L58.17 20.23Q57.76 19.7 57.28 19.24L57.28 19.24Q56.41 18.41 55.29 17.83Q54.81 17.58 54.29 17.4L54.29 17.4Q52.99 16.93 51.52 16.93Q50.22 16.93 49.05 17.3L49.05 17.3Q48.66 17.42 48.29 17.58Q47.38 17.96 46.61 18.53L46.61 18.53L46.61 18.53Q46.09 18.91 45.62 19.37Q45.26 19.73 44.95 20.13L44.95 20.13Q44.29 20.98 43.84 22Q43.75 22.22 43.67 22.45L43.67 22.45Q43.2 23.75 43.2 25.22Q43.2 26.68 43.65 27.97Q43.91 28.7 44.31 29.38Q44.87 30.31 45.62 31.05L45.62 31.05Q46.37 31.8 47.32 32.37C48.59 33.11 49.99 33.48 51.52 33.48C52.88 33.48 54.14 33.18 55.29 32.59C56.45 31.99 57.41 31.2 58.17 30.21ZM63.77 32.37C65.03 33.11 66.43 33.48 67.96 33.48C69.12 33.48 70.19 33.27 71.19 32.84C72.2 32.41 73.08 31.82 73.84 31.06C74.6 30.3 75.2 29.42 75.63 28.43C76.07 27.43 76.28 26.36 76.28 25.22Q76.28 23.74 75.81 22.43Q75.55 21.71 75.15 21.05C74.41 19.79 73.41 18.79 72.14 18.05Q71.53 17.69 70.87 17.44L70.87 17.44Q69.51 16.93 67.96 16.93C66.82 16.93 65.74 17.15 64.73 17.58C63.72 18.01 62.84 18.6 62.07 19.37C61.32 20.12 60.72 21 60.29 22C59.86 23 59.64 24.07 59.64 25.22Q59.64 26.68 60.1 27.97L60.1 27.97Q60.36 28.7 60.76 29.38C61.51 30.63 62.52 31.62 63.77 32.37ZM89.26 28.35L92.92 30.21C92.15 31.2 91.19 31.99 90.04 32.59C88.89 33.18 87.63 33.48 86.26 33.48C84.73 33.48 83.33 33.11 82.07 32.37C80.82 31.62 79.81 30.63 79.06 29.38C78.31 28.13 77.94 26.74 77.94 25.22Q77.94 23.75 78.41 22.45Q78.5 22.22 78.59 22C79.02 21 79.62 20.12 80.37 19.37C81.14 18.6 82.02 18.01 83.03 17.58C84.04 17.15 85.12 16.93 86.26 16.93C87.63 16.93 88.89 17.23 90.04 17.83C91.19 18.43 92.15 19.23 92.92 20.23L89.26 22.08C88.87 21.66 88.41 21.34 87.88 21.11C87.36 20.88 86.82 20.76 86.26 20.76C85.46 20.76 84.74 20.97 84.1 21.39C83.46 21.8 82.95 22.34 82.57 23.03C82.19 23.69 82 24.43 82 25.22C82 26.01 82.19 26.74 82.57 27.42C82.95 28.09 83.46 28.63 84.1 29.04C84.74 29.45 85.46 29.65 86.26 29.65C86.84 29.65 87.39 29.53 87.91 29.3C88.43 29.06 88.88 28.74 89.26 28.35ZM112 17.37L107.93 17.37L108.12 19.38C107.51 18.67 106.77 18.09 105.89 17.63C105.02 17.16 104.04 16.93 102.94 16.93C101.76 16.93 100.65 17.14 99.61 17.56C98.58 17.98 97.67 18.56 96.88 19.3C96.1 20.05 95.48 20.91 95.04 21.89Q94.87 22.28 94.74 22.67Q94.39 23.81 94.39 25.05C94.39 26.21 94.62 27.3 95.07 28.32Q95.4 29.04 95.86 29.69Q96.35 30.39 96.98 31Q97.33 31.33 97.71 31.61Q98.67 32.35 99.83 32.82C100.91 33.26 102.06 33.48 103.29 33.48C104.31 33.48 105.19 33.27 105.94 32.84C106.69 32.4 107.3 31.83 107.75 31.13L107.93 33.07L112 33.07L112 17.37ZM105.49 29.18C104.82 29.59 104.06 29.79 103.19 29.79C102.35 29.79 101.57 29.59 100.86 29.18C100.16 28.77 99.6 28.22 99.18 27.53Q98.96 27.18 98.82 26.79Q98.55 26.06 98.55 25.22Q98.55 24.35 98.84 23.58Q98.97 23.24 99.16 22.92C99.59 22.22 100.15 21.68 100.85 21.27Q101.24 21.03 101.67 20.89Q102.39 20.64 103.19 20.64C104.05 20.64 104.81 20.84 105.47 21.25C106.15 21.66 106.68 22.21 107.05 22.92Q107.17 23.13 107.26 23.35Q107.62 24.21 107.62 25.22Q107.62 26.11 107.34 26.9Q107.22 27.22 107.05 27.53C106.68 28.22 106.15 28.77 105.49 29.18ZM70.14 29.04C69.5 29.45 68.77 29.65 67.96 29.65C67.2 29.65 66.49 29.46 65.83 29.07Q65.44 28.83 65.12 28.52Q64.63 28.07 64.29 27.47Q64.13 27.21 64.02 26.93Q63.7 26.14 63.7 25.22Q63.7 24.52 63.9 23.88L63.9 23.88L63.9 23.88Q64.04 23.43 64.27 23.01C64.65 22.33 65.16 21.79 65.8 21.38Q66.14 21.16 66.5 21.02Q67.18 20.76 67.96 20.76Q68.62 20.76 69.21 20.96L69.21 20.96Q69.67 21.11 70.09 21.38C70.75 21.77 71.26 22.31 71.64 22.99Q71.82 23.3 71.94 23.63Q72.22 24.37 72.22 25.22C72.22 26.02 72.03 26.75 71.66 27.42C71.29 28.09 70.79 28.63 70.14 29.04Z" fill="#101010" fill-opacity="1.000000" fill-rule="evenodd"/>
	<ellipse id="Ellipse 1" cx="16.799805" cy="24.030304" rx="16.799999" ry="16.545454" fill="#101010" fill-opacity="1.000000"/>
	<path id="c" d="M21.95 27.92L25.59 29.73C24.71 30.87 23.58 31.78 22.21 32.46C20.85 33.14 19.38 33.48 17.78 33.48C15.98 33.48 14.34 33.06 12.85 32.21C11.37 31.36 10.19 30.22 9.31 28.8C8.43 27.36 8 25.78 8 24.04C8 22.73 8.25 21.5 8.76 20.37C9.27 19.22 9.97 18.21 10.85 17.35C11.75 16.48 12.8 15.8 13.99 15.31C15.17 14.82 16.44 14.57 17.78 14.57C19.38 14.57 20.85 14.91 22.21 15.59C23.58 16.28 24.71 17.19 25.59 18.34L21.95 20.15C21.41 19.55 20.77 19.1 20.04 18.79C19.3 18.46 18.55 18.3 17.78 18.3C16.71 18.3 15.74 18.57 14.87 19.11C14 19.64 13.32 20.34 12.81 21.21C12.32 22.07 12.07 23.01 12.07 24.04C12.07 25.06 12.32 26 12.83 26.88C13.34 27.74 14.03 28.43 14.89 28.96C15.76 29.49 16.73 29.75 17.78 29.75C18.59 29.75 19.36 29.58 20.09 29.25C20.83 28.91 21.44 28.47 21.95 27.92Z" fill="#FFFFFF" fill-opacity="1.000000" fill-rule="nonzero"/>
</svg>
