<svg width="24.000000" height="24.000000" viewBox="0 0 24 24" fill="none" xmlns="http://www.w3.org/2000/svg" xmlns:xlink="http://www.w3.org/1999/xlink">
	<desc>
			Created with Pixso.
	</desc>
	<defs>
		<clipPath id="clip266_7713">
			<rect id="menu" rx="0.000000" width="23.000000" height="23.000000" transform="translate(0.500000 0.500000)" fill="white" fill-opacity="0"/>
		</clipPath>
	</defs>
	<g clip-path="url(#clip266_7713)">
		<path id="Icon" d="M3.59 6C3.59 5.33 4.13 4.79 4.79 4.79L19.19 4.79C19.86 4.79 20.39 5.33 20.39 6C20.39 6.66 19.86 7.19 19.19 7.19L4.79 7.19C4.13 7.19 3.59 6.66 3.59 6ZM3.59 12C3.59 11.33 4.13 10.8 4.79 10.8L19.19 10.8C19.86 10.8 20.39 11.33 20.39 12C20.39 12.66 19.86 13.2 19.19 13.2L4.79 13.2C4.13 13.2 3.59 12.66 3.59 12ZM12 16.79C11.33 16.79 10.79 17.33 10.79 18C10.79 18.66 11.33 19.2 12 19.2L19.19 19.2C19.86 19.2 20.39 18.66 20.39 18C20.39 17.33 19.86 16.79 19.19 16.79L12 16.79Z" fill="#101010" fill-opacity="1.000000" fill-rule="evenodd"/>
	</g>
</svg>
