<svg width="88.988281" height="18.958252" viewBox="0 0 88.9883 18.9583" fill="none" xmlns="http://www.w3.org/2000/svg" xmlns:xlink="http://www.w3.org/1999/xlink">
	<desc>
			Created with Pixso.
	</desc>
	<defs>
		<clipPath id="clip266_7896">
			<rect id="Microsoft Logo" rx="0.000000" width="88.203171" height="18.173260" transform="translate(0.392537 0.392537)" fill="white" fill-opacity="0"/>
		</clipPath>
	</defs>
	<rect id="Microsoft Logo" rx="0.000000" width="88.203171" height="18.173260" transform="translate(0.392537 0.392537)" fill="#FFFFFF" fill-opacity="0"/>
	<g clip-path="url(#clip266_7896)">
		<path id="Vector" d="M31.41 10.91L30.88 12.41L30.83 12.41C30.74 12.08 30.58 11.56 30.32 10.94L27.47 3.82L24.69 3.82L24.69 15.18L26.53 15.18L26.53 8.17C26.53 7.73 26.53 7.23 26.52 6.61C26.5 6.3 26.47 6.06 26.46 5.89L26.5 5.89C26.59 6.33 26.69 6.65 26.77 6.86L30.18 15.15L31.48 15.15L34.87 6.78C34.94 6.59 35.02 6.21 35.09 5.89L35.13 5.89C35.09 6.73 35.06 7.48 35.05 7.93L35.05 15.13L37.01 15.13L37.01 3.79L34.32 3.79L31.41 10.91ZM38.86 6.99L40.78 6.99L40.78 15.13L38.86 15.13L38.86 6.99ZM39.83 3.55C39.51 3.55 39.25 3.67 39.02 3.87C38.8 4.08 38.68 4.35 38.68 4.67C38.68 4.98 38.8 5.24 39.02 5.45C39.25 5.65 39.51 5.76 39.83 5.76C40.16 5.76 40.44 5.64 40.64 5.45C40.87 5.24 40.98 4.98 40.98 4.67C40.98 4.36 40.87 4.1 40.64 3.87C40.45 3.67 40.17 3.55 39.83 3.55ZM47.57 6.92C47.22 6.84 46.85 6.8 46.49 6.8C45.62 6.8 44.83 6.99 44.17 7.37C43.5 7.75 42.97 8.28 42.63 8.95C42.28 9.62 42.1 10.4 42.1 11.3C42.1 12.08 42.28 12.77 42.62 13.4C42.96 14.02 43.43 14.52 44.06 14.85C44.67 15.19 45.37 15.37 46.17 15.37C47.08 15.37 47.86 15.18 48.48 14.82L48.5 14.81L48.5 13.05L48.42 13.1C48.14 13.31 47.82 13.49 47.5 13.59C47.16 13.71 46.85 13.77 46.58 13.77C45.82 13.77 45.21 13.55 44.78 13.06C44.34 12.59 44.12 11.94 44.12 11.13C44.12 10.3 44.34 9.64 44.8 9.15C45.26 8.67 45.86 8.42 46.6 8.42C47.22 8.42 47.85 8.62 48.42 9.03L48.5 9.09L48.5 7.23L48.48 7.21C48.23 7.11 47.95 6.99 47.57 6.92ZM53.89 6.86C53.42 6.86 52.98 7.01 52.59 7.31C52.27 7.58 52.05 7.96 51.86 8.42L51.84 8.42L51.84 6.99L49.93 6.99L49.93 15.13L51.84 15.13L51.84 10.97C51.84 10.27 51.99 9.68 52.31 9.25C52.64 8.81 53.05 8.59 53.55 8.59C53.73 8.59 53.9 8.64 54.12 8.67C54.33 8.72 54.48 8.78 54.58 8.86L54.66 8.92L54.66 7.01L54.61 6.99C54.48 6.9 54.21 6.86 53.89 6.86ZM59.11 6.81C57.76 6.81 56.69 7.21 55.94 7.99C55.17 8.77 54.8 9.84 54.8 11.19C54.8 12.46 55.19 13.49 55.92 14.24C56.66 14.97 57.66 15.35 58.91 15.35C60.22 15.35 61.27 14.96 62.02 14.16C62.79 13.37 63.16 12.31 63.16 11C63.16 9.71 62.8 8.68 62.08 7.93C61.39 7.18 60.37 6.81 59.11 6.81ZM60.64 13.07C60.28 13.53 59.72 13.75 59.03 13.75C58.34 13.75 57.78 13.53 57.38 13.05C56.98 12.59 56.79 11.93 56.79 11.09C56.79 10.22 57 9.56 57.38 9.09C57.78 8.62 58.32 8.39 59.02 8.39C59.69 8.39 60.22 8.61 60.61 9.06C60.99 9.52 61.2 10.18 61.2 11.05C61.17 11.93 61.01 12.62 60.64 13.07ZM67.43 10.37C66.83 10.12 66.44 9.93 66.27 9.77C66.12 9.62 66.04 9.42 66.04 9.15C66.04 8.93 66.13 8.71 66.35 8.56C66.58 8.42 66.83 8.34 67.19 8.34C67.52 8.34 67.86 8.4 68.18 8.49C68.5 8.58 68.8 8.71 69.04 8.89L69.11 8.95L69.11 7.15L69.06 7.14C68.84 7.05 68.55 6.96 68.2 6.89C67.84 6.83 67.52 6.8 67.25 6.8C66.34 6.8 65.59 7.02 65 7.51C64.41 7.96 64.13 8.58 64.13 9.3C64.13 9.68 64.19 10.02 64.32 10.3C64.45 10.58 64.64 10.84 64.91 11.06C65.17 11.27 65.56 11.5 66.09 11.72C66.53 11.91 66.87 12.06 67.08 12.18C67.28 12.3 67.41 12.43 67.52 12.53C67.59 12.65 67.64 12.8 67.64 12.99C67.64 13.53 67.22 13.8 66.38 13.8C66.06 13.8 65.72 13.74 65.32 13.6C64.92 13.47 64.56 13.28 64.25 13.06L64.17 13L64.17 14.87L64.22 14.88C64.5 15.01 64.84 15.1 65.25 15.21C65.66 15.28 66.03 15.34 66.35 15.34C67.34 15.34 68.15 15.12 68.73 14.63C69.32 14.16 69.62 13.56 69.62 12.78C69.62 12.24 69.48 11.75 69.15 11.38C68.73 11.03 68.2 10.66 67.43 10.37ZM74.68 6.81C73.34 6.81 72.26 7.21 71.51 7.99C70.76 8.77 70.38 9.84 70.38 11.19C70.38 12.46 70.76 13.49 71.5 14.24C72.23 14.97 73.23 15.35 74.49 15.35C75.8 15.35 76.84 14.96 77.6 14.16C78.36 13.37 78.73 12.31 78.73 11C78.73 9.71 78.38 8.68 77.65 7.93C76.96 7.18 75.95 6.81 74.68 6.81ZM76.2 13.07C75.84 13.53 75.28 13.75 74.59 13.75C73.88 13.75 73.34 13.53 72.94 13.05C72.54 12.59 72.35 11.93 72.35 11.09C72.35 10.22 72.56 9.56 72.94 9.09C73.34 8.62 73.88 8.39 74.58 8.39C75.24 8.39 75.78 8.61 76.17 9.06C76.55 9.52 76.76 10.18 76.76 11.05C76.76 11.93 76.56 12.62 76.2 13.07ZM88.97 8.56L88.97 6.99L87.04 6.99L87.04 4.58L86.98 4.6L85.15 5.14L85.11 5.15L85.11 6.99L82.22 6.99L82.22 5.96C82.22 5.49 82.34 5.12 82.55 4.89C82.75 4.65 83.06 4.54 83.44 4.54C83.71 4.54 83.99 4.6 84.3 4.73L84.37 4.77L84.37 3.11L84.33 3.1C84.06 3.01 83.71 2.95 83.25 2.95C82.68 2.95 82.18 3.08 81.72 3.3C81.26 3.55 80.92 3.89 80.67 4.35C80.42 4.79 80.29 5.29 80.29 5.86L80.29 6.99L78.95 6.99L78.95 8.55L80.29 8.55L80.29 15.13L82.22 15.13L82.22 8.56L85.11 8.56L85.11 12.75C85.11 14.47 85.92 15.34 87.54 15.34C87.81 15.34 88.08 15.29 88.35 15.25C88.63 15.19 88.84 15.12 88.95 15.06L88.97 15.04L88.97 13.47L88.9 13.53C88.78 13.6 88.67 13.66 88.5 13.71C88.35 13.75 88.22 13.77 88.11 13.77C87.73 13.77 87.47 13.68 87.27 13.46C87.1 13.25 87.01 12.91 87.01 12.41L87.01 8.56L88.97 8.56Z" fill="#737373" fill-opacity="1.000000" fill-rule="nonzero"/>
		<path id="Vector" d="M0 0L9.03 0L9.03 9L0 9L0 0Z" fill="#F25022" fill-opacity="1.000000" fill-rule="nonzero"/>
		<path id="Vector" d="M9.97 0L19 0L19 9L9.97 9L9.97 0Z" fill="#7FBA00" fill-opacity="1.000000" fill-rule="nonzero"/>
		<path id="Vector" d="M0 9.94L9.03 9.94L9.03 18.95L0 18.95L0 9.94Z" fill="#00A4EF" fill-opacity="1.000000" fill-rule="nonzero"/>
		<path id="Vector" d="M9.97 9.94L19 9.94L19 18.95L9.97 18.95L9.97 9.94Z" fill="#FFB900" fill-opacity="1.000000" fill-rule="nonzero"/>
	</g>
</svg>
