<svg width="71.482422" height="24.791748" viewBox="0 0 71.4824 24.7917" fill="none" xmlns="http://www.w3.org/2000/svg" xmlns:xlink="http://www.w3.org/1999/xlink">
	<desc>
			Created with Pixso.
	</desc>
	<defs>
		<clipPath id="clip266_7924">
			<rect id="OLA logo" rx="0.000000" width="70.697281" height="24.006594" transform="translate(0.392537 0.392537)" fill="white" fill-opacity="0"/>
		</clipPath>
	</defs>
	<rect id="OLA logo" rx="0.000000" width="70.697281" height="24.006594" transform="translate(0.392537 0.392537)" fill="#FFFFFF" fill-opacity="0"/>
	<g clip-path="url(#clip266_7924)">
		<path id="Vector" d="M63 11.55L58.45 19.45L54.57 19.46L63 4.59L71.4 19.46L67.46 19.46L63 11.55L63 11.55ZM50.75 16.02L55.1 16.02L53.08 19.46L47.41 19.46L47.43 15.27L47.43 4.68L50.76 4.68L50.75 16.02L50.75 16.02ZM38.83 4.68C42.97 4.7 46.32 8 46.31 12.08C46.29 16.14 42.94 19.45 38.79 19.45C34.66 19.43 31.31 16.13 31.31 12.05C31.33 7.98 34.68 4.68 38.83 4.68ZM38.81 16.01C41.03 16.01 42.81 14.25 42.81 12.08C42.83 9.91 41.03 8.14 38.83 8.14C36.62 8.12 34.82 9.89 34.82 12.06C34.8 14.23 36.6 16.01 38.81 16.01L38.81 16.01ZM25.13 10.91C25.08 10.29 24.93 9.48 24.7 8.71C24.22 7.1 23.38 5.62 22.26 4.38C21.67 3.74 21 3.14 20.01 2.44C19.25 2.06 18.5 1.66 17.77 1.23C17.29 0.96 16.72 0.62 15.96 0.38C15.05 0.16 14.13 0.04 13.21 0.03C12.31 -0.01 11.41 0.07 10.54 0.24C9.62 0.39 8.86 0.64 7.85 0.88C5.57 1.87 3.8 3.37 2.28 5.36C-3.03 12.83 1.76 23.3 10.63 24.54C12.09 24.74 13.55 24.66 14.93 24.34L15.91 24.08C15.94 24.06 15.99 24.05 16.02 24.05L17.14 23.62C17.2 23.59 17.24 23.57 17.31 23.54L17.77 23.33C18.67 22.88 19.5 22.34 20.27 21.7C19.57 22.33 18.81 22.9 18 23.39L18.05 23.42C18.21 23.38 18.35 23.33 18.5 23.3C18.5 23.3 18.5 23.54 18.47 23.5C18.22 23.68 18.61 23.51 19.11 23.25C19.6 22.99 20.09 22.67 20.52 22.31C21.16 21.77 21.72 21.19 22.51 20.24C23.31 18.82 24.32 17.58 24.79 15.92C24.95 15.47 25.08 14.96 25.18 14.42C25.27 13.89 25.33 13.34 25.33 12.77C25.32 12.2 25.26 11.62 25.13 10.91ZM13.64 23.47C16.36 23.04 18.64 21.53 20.5 19.46C21.02 18.71 21.42 18.03 21.92 17.28C22.54 15.75 22.49 14.39 22.69 13.43C22.94 11.68 22.35 10.28 21.86 8.78C21.09 7.04 20.09 5.74 18.32 4.73C13.84 1.95 7.76 2.73 4.85 6.89C4.84 6.89 4.76 6.99 4.61 7.21C4.81 6.35 5.32 5.85 5.83 5.36C7.35 4.11 9.12 3.11 11.14 2.62C13.43 2.38 15.69 2.62 17.72 3.62C20.77 5.36 22.79 8.09 23.3 11.33L23.3 14.33C22.66 19.23 18.47 22.96 13.64 23.47ZM24.81 12.31C24.7 5.13 17.6 0.28 10.69 1.26C8.67 1.77 6.47 2.78 4.9 4.18C4.14 4.69 3.78 5.62 3.02 6.37C-0.02 10.84 0.51 16.58 4.29 20.06C4.78 20.54 5.3 20.99 5.85 21.41C2.68 19.49 1.25 16.6 0.75 13.09C0.75 11.84 1 10.6 1.27 9.35C3.04 3.86 8.61 -0.13 14.68 0.88C15.69 1.13 16.7 1.39 17.73 1.63C19 2.13 20.26 2.88 21.27 3.88C22.28 4.87 23.04 6.12 23.8 7.36C24.31 8.35 24.56 9.61 24.81 10.6C24.85 11.17 24.85 11.75 24.81 12.31L24.81 12.31Z" fill="#1D1E25" fill-opacity="1.000000" fill-rule="evenodd"/>
		<path id="Vector" d="M18.5 12.42C18.5 15.51 15.92 18.01 12.74 18.01C9.56 18.01 6.98 15.51 6.98 12.42C6.98 9.33 9.56 6.83 12.74 6.83C15.92 6.83 18.5 9.33 18.5 12.42L18.5 12.42Z" fill="#FFFFFF" fill-opacity="1.000000" fill-rule="evenodd"/>
		<path id="Vector" d="M18.53 11.47C18.46 11.04 18.33 10.71 18.21 10.23C17.71 9.19 16.98 8.38 16.02 7.7C12.42 5.3 7.46 7.61 6.94 11.7C6.73 13.32 7.31 14.88 8.33 16.07C8.02 15.75 7.68 15.42 7.45 15.03L7.42 15.06C7.45 15.15 7.57 15.22 7.6 15.31C7.6 15.31 7.48 15.31 7.51 15.29C7.42 15.19 7.5 15.35 7.63 15.58C7.76 15.81 7.91 16.03 8.1 16.23C8.36 16.52 8.64 16.78 9.11 17.13C9.79 17.48 10.4 17.94 11.19 18.15C11.41 18.21 11.66 18.27 11.9 18.32C12.17 18.36 12.42 18.38 12.7 18.38C12.96 18.38 13.24 18.35 13.58 18.29C13.93 18.25 14.28 18.17 14.62 18.07C15.38 17.84 16.08 17.45 16.67 16.91C16.97 16.64 17.39 16.29 17.71 15.83C17.98 15.31 18.01 15.05 18.13 14.82C18.25 14.59 18.41 14.33 18.52 13.98C18.61 13.56 18.66 13.14 18.67 12.71C18.66 12.28 18.63 11.87 18.53 11.47L18.53 11.47ZM14.84 8.63C15.37 8.93 15.44 8.98 15.16 8.78C15.57 8.87 15.82 9.1 16.06 9.33C16.67 10.02 17.17 10.83 17.41 11.76C17.55 12.82 17.45 13.87 17 14.8C16.19 16.22 14.9 17.17 13.36 17.43C13.19 17.43 13.01 17.43 12.83 17.45C13.27 17.37 13.55 17.09 14.34 16.8C15.19 16.5 16.16 15.08 16.62 14.25C17.99 12.01 16.37 9.93 14.84 8.63ZM11.92 17.46C9.56 17.22 7.74 15.28 7.49 13.03C7.71 14.28 8.46 15.25 9.47 16.1C9.82 16.33 10.35 16.65 10.71 16.88C11.31 17.11 11.67 17.36 12.26 17.46L11.92 17.46L11.92 17.46ZM18.27 13.38C18.16 13.86 18.05 14.31 17.94 14.79C17.71 15.37 17.37 15.96 16.9 16.44C16.44 16.91 15.85 17.28 15.26 17.63C14.79 17.87 14.2 18 13.72 18.12C13.44 18.15 13.11 18.03 12.83 18.01C16.28 17.92 18.64 14.7 18.13 11.5C17.88 10.57 17.38 9.76 16.78 8.95C16.53 8.6 16.05 8.38 15.69 8.03C13.53 6.67 10.68 6.95 9.05 8.74C8.82 8.97 8.61 9.22 8.41 9.48C9.28 8.2 10.68 7.3 12.35 7.04C12.94 7.02 13.55 7.13 14.14 7.24C16.75 8.03 18.69 10.57 18.27 13.38L18.27 13.38Z" fill="#D7DF23" fill-opacity="1.000000" fill-rule="evenodd"/>
	</g>
</svg>
