<svg width="61.764648" height="23.333252" viewBox="0 0 61.7646 23.3333" fill="none" xmlns="http://www.w3.org/2000/svg" xmlns:xlink="http://www.w3.org/1999/xlink">
	<desc>
			Created with Pixso.
	</desc>
	<defs>
		<clipPath id="clip266_7905">
			<rect id="OYO Logo" rx="0.000000" width="60.979626" height="22.548260" transform="translate(0.392537 0.392537)" fill="white" fill-opacity="0"/>
		</clipPath>
	</defs>
	<rect id="OYO Logo" rx="0.000000" width="60.979626" height="22.548260" transform="translate(0.392537 0.392537)" fill="#FFFFFF" fill-opacity="0"/>
	<g clip-path="url(#clip266_7905)">
		<path id="Vector" d="M50.78 22.34C56.64 22.34 61.42 17.53 61.42 11.62C61.42 5.7 56.64 0.89 50.78 0.89C44.91 0.89 40.14 5.7 40.14 11.62C40.14 17.53 44.91 22.34 50.78 22.34ZM50.78 7.79C52.87 7.79 54.57 9.51 54.57 11.61C54.57 13.72 52.87 15.43 50.78 15.43C48.68 15.43 46.98 13.72 46.98 11.61C46.98 9.5 48.69 7.79 50.78 7.79L50.78 7.79ZM10.63 22.34C16.5 22.34 21.27 17.53 21.27 11.62C21.27 5.7 16.5 0.89 10.63 0.89C4.77 0.89 0 5.7 0 11.62C0 17.53 4.77 22.34 10.63 22.34ZM10.63 7.79C12.73 7.79 14.43 9.51 14.43 11.61C14.43 13.72 12.73 15.43 10.63 15.43C8.54 15.43 6.84 13.72 6.84 11.61C6.84 9.5 8.55 7.79 10.63 7.79L10.63 7.79ZM30.7 7.55L27.43 1.03L19.79 1.03L26.93 15.29L26.93 22L34.47 22L34.47 15.29L41.62 1.03L33.96 1.03L30.7 7.55L30.7 7.55Z" fill="#EE2E24" fill-opacity="1.000000" fill-rule="nonzero"/>
	</g>
</svg>
