<svg width="16.000000" height="16.000000" viewBox="0 0 16 16" fill="none" xmlns="http://www.w3.org/2000/svg" xmlns:xlink="http://www.w3.org/1999/xlink">
	<desc>
			Created with Pixso.
	</desc>
	<defs>
		<clipPath id="clip266_7934">
			<rect id="right arrow" rx="0.000000" width="15.425000" height="15.425000" transform="translate(0.287500 0.287500)" fill="white" fill-opacity="0"/>
		</clipPath>
	</defs>
	<g clip-path="url(#clip266_7934)">
		<path id="Icon" d="M8.23 2.63C8.54 2.32 9.05 2.32 9.36 2.63L14.16 7.43C14.47 7.74 14.47 8.25 14.16 8.56L9.36 13.36C9.05 13.67 8.54 13.67 8.23 13.36C7.92 13.05 7.92 12.54 8.23 12.23L11.66 8.79L2.39 8.79C1.95 8.79 1.59 8.44 1.59 8C1.59 7.55 1.95 7.19 2.39 7.19L11.66 7.19L8.23 3.76C7.92 3.45 7.92 2.94 8.23 2.63Z" fill="#FFFFFF" fill-opacity="1.000000" fill-rule="evenodd"/>
	</g>
</svg>
