<svg width="40.729492" height="29.982910" viewBox="0 0 40.7295 29.9829" fill="none" xmlns="http://www.w3.org/2000/svg" xmlns:xlink="http://www.w3.org/1999/xlink">
	<desc>
			Created with Pixso.
	</desc>
	<defs>
		<filter id="filter_266_7929_dd" x="0.000000" y="0.000000" width="40.729492" height="29.982910" filterUnits="userSpaceOnUse" color-interpolation-filters="sRGB">
			<feFlood flood-opacity="0" result="BackgroundImageFix"/>
			<feColorMatrix in="SourceAlpha" type="matrix" values="0 0 0 0 0 0 0 0 0 0 0 0 0 0 0 0 0 0 127 0" result="hardAlpha"/>
			<feOffset dx="0" dy="4"/>
			<feGaussianBlur stdDeviation="1.33333"/>
			<feComposite in2="hardAlpha" operator="out" k2="-1" k3="1"/>
			<feColorMatrix type="matrix" values="0 0 0 0 0 0 0 0 0 0 0 0 0 0 0 0 0 0 0.25 0"/>
			<feBlend mode="normal" in2="BackgroundImageFix" result="effect_dropShadow_1"/>
			<feBlend mode="normal" in="SourceGraphic" in2="effect_dropShadow_1" result="shape"/>
		</filter>
	</defs>
	<g filter="url(#filter_266_7929_dd)">
		<path id="“" d="M16.73 21.7L4.39 21.7L12.29 0.27L20.39 0.27L16.73 21.7ZM32.73 21.7L20.46 21.7L28.36 0.27L36.39 0.27L32.73 21.7Z" fill="#EDEDED" fill-opacity="1.000000" fill-rule="nonzero"/>
		<path id="“" d="M12.09 0L4.13 21.6L4 21.98L16.96 21.98L20.72 0L12.09 0ZM28.16 0L20.2 21.6L20.07 21.98L32.96 21.98L36.72 0L28.16 0ZM4.69 21.7L4.39 21.7L4.5 21.42L12.29 0.27L20.39 0.27L20.35 0.55L16.73 21.7L4.69 21.7ZM20.76 21.7L20.46 21.7L20.57 21.42L28.36 0.27L36.39 0.27L36.35 0.55L32.73 21.7L20.76 21.7Z" fill="#000000" fill-opacity="1.000000" fill-rule="evenodd"/>
	</g>
</svg>
