<svg width="16.000000" height="16.000000" viewBox="0 0 16 16" fill="none" xmlns="http://www.w3.org/2000/svg" xmlns:xlink="http://www.w3.org/1999/xlink">
	<desc>
			Created with Pixso.
	</desc>
	<defs/>
	<path id="Stroke 1" d="M8.98 0.63L10.6 4.07C10.76 4.41 11.07 4.64 11.42 4.69L15.06 5.25C15.96 5.38 16.31 6.54 15.66 7.2L13.04 9.87C12.78 10.13 12.66 10.51 12.72 10.88L13.34 14.66C13.49 15.59 12.55 16.3 11.75 15.86L8.5 14.08C8.19 13.9 7.8 13.9 7.49 14.08L4.24 15.86C3.44 16.3 2.5 15.59 2.65 14.66L3.27 10.88C3.33 10.51 3.21 10.13 2.95 9.87L0.33 7.2C-0.32 6.54 0.04 5.38 0.93 5.25L4.57 4.69C4.92 4.64 5.23 4.41 5.39 4.07L7.01 0.63C7.41 -0.22 8.58 -0.22 8.98 0.63Z" fill="#FFD33C" fill-opacity="1.000000" fill-rule="evenodd"/>
</svg>
