<svg width="96.235352" height="28.416748" viewBox="0 0 96.2354 28.4167" fill="none" xmlns="http://www.w3.org/2000/svg" xmlns:xlink="http://www.w3.org/1999/xlink">
	<desc>
			Created with Pixso.
	</desc>
	<defs>
		<filter id="filter_266_7909_dd" x="0.000000" y="0.000000" width="96.235352" height="28.416748" filterUnits="userSpaceOnUse" color-interpolation-filters="sRGB">
			<feFlood flood-opacity="0" result="BackgroundImageFix"/>
			<feColorMatrix in="SourceAlpha" type="matrix" values="0 0 0 0 0 0 0 0 0 0 0 0 0 0 0 0 0 0 127 0" result="hardAlpha"/>
			<feOffset dx="0" dy="4"/>
			<feGaussianBlur stdDeviation="1.33333"/>
			<feComposite in2="hardAlpha" operator="out" k2="-1" k3="1"/>
			<feColorMatrix type="matrix" values="0 0 0 0 0 0 0 0 0 0 0 0 0 0 0 0 0 0 0.25 0"/>
			<feBlend mode="normal" in2="BackgroundImageFix" result="effect_dropShadow_1"/>
			<feBlend mode="normal" in="SourceGraphic" in2="effect_dropShadow_1" result="shape"/>
		</filter>
		<clipPath id="clip266_7909">
			<rect id="Walmart Logo" rx="0.000000" width="87.450218" height="19.631594" transform="translate(4.392537 0.392537)" fill="white" fill-opacity="0"/>
		</clipPath>
	</defs>
	<g filter="url(#filter_266_7909_dd)">
		<rect id="Walmart Logo" rx="0.000000" width="87.450218" height="19.631594" transform="translate(4.392537 0.392537)" fill="#FFFFFF" fill-opacity="0"/>
		<g clip-path="url(#clip266_7909)">
			<path id="Shape" d="M35.4 7.26L35.4 8.41L35.43 8.41C35.85 7.79 36.55 7.07 38.1 7.07C39.31 7.07 40.24 7.67 40.63 8.59L40.67 8.59C41.01 8.12 41.4 7.77 41.83 7.53C42.35 7.23 42.92 7.06 43.64 7.06C45.27 7.06 46.72 8.11 46.72 10.76L46.72 15.78L44.23 15.78L44.23 11.11C44.23 9.77 43.74 8.99 42.72 8.99C41.97 8.99 41.43 9.46 41.22 10.03C41.15 10.23 41.12 10.5 41.12 10.72L41.12 15.78L38.63 15.78L38.63 10.92C38.63 9.78 38.16 8.99 37.15 8.99C36.35 8.99 35.84 9.58 35.64 10.08C35.55 10.3 35.52 10.55 35.52 10.78L35.52 15.78L33.03 15.78L33.03 7.26L35.4 7.26ZM59.57 7.26L59.57 8.86L59.64 8.86C60.1 7.64 61.18 7.07 62.14 7.07C62.38 7.07 62.51 7.08 62.7 7.12L62.7 9.35C62.47 9.32 62.26 9.29 61.96 9.29C60.88 9.29 60.13 9.87 59.94 10.79C59.9 10.98 59.89 11.18 59.89 11.42L59.89 15.78L57.33 15.78L57.33 7.26L59.57 7.26ZM66.17 4.43L66.17 7.12L68.33 7.12L68.33 9.29L66.17 9.29L66.17 12.49C66.17 13.53 66.46 14.03 67.3 14.03C67.7 14.03 67.99 13.98 68.24 13.92L68.28 15.72C67.94 15.84 67.21 15.97 66.48 15.97C65.62 15.97 64.9 15.69 64.46 15.26C63.96 14.76 63.73 13.95 63.73 12.8L63.73 4.43L66.17 4.43ZM31.29 15.78L28.81 15.78L28.81 4.43L31.29 4.43L31.29 15.78ZM24.68 12.74C24.68 12.89 24.67 13.06 24.62 13.2C24.43 13.79 23.77 14.29 22.95 14.29C22.26 14.29 21.72 13.93 21.72 13.16C21.72 11.99 23.11 11.67 24.69 11.67L24.69 12.74L24.68 12.74ZM27.16 10.7C27.16 8.76 26.27 7.07 23.27 7.07C21.73 7.07 20.51 7.47 19.84 7.83L20.33 9.38C20.94 9.02 21.91 8.72 22.83 8.72C24.35 8.72 24.6 9.53 24.6 10.04L24.6 10.16C21.28 10.16 19.19 11.22 19.19 13.4C19.19 14.73 20.25 15.97 22.11 15.97C23.25 15.97 24.21 15.55 24.78 14.87L24.83 14.87C24.83 14.87 25.21 16.34 27.3 15.78C27.19 15.17 27.16 14.51 27.16 13.73L27.16 10.7L27.16 10.7ZM6.73 4.43C6.99 5.63 7.72 9.12 7.72 9.12C8.02 10.55 8.3 12.06 8.52 13.24L8.55 13.24C8.76 11.98 9.09 10.79 9.43 9.31L10.66 4.43L13.37 4.43L14.52 9.43C14.82 10.82 15.06 11.9 15.25 13.19L15.28 13.19C15.49 11.88 15.76 10.77 16.05 9.34L17.16 4.43L19.76 4.43L16.53 15.78C14.48 16.2 13.69 15.43 13.41 14.21C13.13 12.99 12.58 10.67 12.58 10.67C12.29 9.39 12.07 8.5 11.92 7.19L11.88 7.19C11.66 8.49 11.43 9.39 11.09 10.66L9.74 15.78C7.64 16.17 6.91 15.59 6.51 14.03C6.16 12.69 4 4.44 4 4.44L6.73 4.44L6.73 4.43ZM53.2 12.74C53.2 12.89 53.19 13.06 53.14 13.2C52.95 13.79 52.29 14.29 51.47 14.29C50.78 14.29 50.24 13.93 50.24 13.16C50.24 11.99 51.62 11.67 53.2 11.67L53.2 12.74L53.2 12.74ZM55.68 10.7C55.68 8.76 54.79 7.07 51.79 7.07C50.25 7.07 49.03 7.47 48.36 7.83L48.85 9.38C49.46 9.02 50.43 8.72 51.35 8.72C52.87 8.72 53.12 9.53 53.12 10.04L53.12 10.16C49.8 10.16 47.71 11.22 47.71 13.4C47.71 14.73 48.78 15.97 50.63 15.97C51.77 15.97 52.73 15.55 53.3 14.87L53.35 14.87C53.35 14.87 53.73 16.34 55.82 15.78C55.71 15.17 55.68 14.51 55.68 13.73L55.68 10.7Z" fill="#041E42" fill-opacity="1.000000" fill-rule="nonzero"/>
			<path id="Shape" d="M78.38 11.87C78.63 12.29 78.61 12.75 78.35 12.96L73.84 16.04C73.37 16.3 72.67 15.98 72.27 15.31C71.87 14.64 71.94 13.88 72.41 13.62L77.4 11.36C77.72 11.24 78.14 11.46 78.38 11.87ZM84.32 11.87C84.56 11.46 84.98 11.24 85.3 11.36L90.29 13.62C90.76 13.88 90.83 14.63 90.43 15.31C90.03 15.98 89.33 16.3 88.86 16.03L84.35 12.96C84.09 12.75 84.07 12.28 84.32 11.87ZM81.35 13.54C81.84 13.54 82.24 13.79 82.3 14.11L82.79 19.45C82.79 19.98 82.15 20.41 81.35 20.41C80.55 20.41 79.92 19.98 79.92 19.45L80.4 14.11C80.46 13.79 80.86 13.54 81.35 13.54ZM84.35 7.45L88.86 4.37C89.33 4.11 90.03 4.42 90.43 5.1C90.83 5.77 90.76 6.52 90.29 6.79L85.3 9.05C84.98 9.16 84.56 8.95 84.32 8.54C84.07 8.12 84.09 7.66 84.35 7.45ZM77.4 9.05L72.41 6.79C71.94 6.52 71.87 5.77 72.27 5.1C72.67 4.42 73.37 4.11 73.84 4.37L78.35 7.45C78.61 7.66 78.63 8.12 78.38 8.54C78.14 8.95 77.72 9.16 77.4 9.05ZM80.4 6.3L79.92 0.96C79.92 0.43 80.55 0 81.35 0C82.15 0 82.79 0.43 82.79 0.96L82.3 6.3C82.24 6.62 81.84 6.87 81.35 6.87C80.86 6.87 80.46 6.62 80.4 6.3ZM91.65 16.01L91.65 15.88L91.77 15.88C91.82 15.88 91.84 15.91 91.84 15.95C91.84 15.99 91.82 16.01 91.77 16.01L91.65 16.01ZM91.55 16.26C91.55 16.27 91.56 16.28 91.58 16.28L91.63 16.28C91.64 16.28 91.66 16.27 91.66 16.26L91.66 16.11L91.74 16.11L91.81 16.27C91.82 16.28 91.82 16.28 91.83 16.28L91.9 16.28C91.92 16.28 91.93 16.27 91.92 16.25C91.9 16.2 91.87 16.15 91.85 16.1C91.89 16.08 91.95 16.04 91.95 15.95C91.95 15.85 91.87 15.79 91.78 15.79L91.58 15.79C91.56 15.79 91.55 15.8 91.55 15.81L91.55 16.26ZM91.33 16.04C91.33 15.82 91.51 15.64 91.73 15.64C91.95 15.64 92.13 15.82 92.13 16.04C92.13 16.25 91.96 16.43 91.73 16.43C91.51 16.43 91.33 16.25 91.33 16.04ZM91.23 16.04C91.23 16.3 91.45 16.52 91.73 16.52C92 16.52 92.23 16.3 92.23 16.04C92.23 15.77 92 15.55 91.73 15.55C91.45 15.55 91.23 15.77 91.23 16.04Z" fill="#FFC124" fill-opacity="1.000000" fill-rule="nonzero"/>
		</g>
	</g>
</svg>
